{
	"asset":{
		"generator":"Khronos glTF Blender I/O v3.5.30",
		"version":"2.0"
	},
	"extensionsUsed":[
		"KHR_texture_transform"
	],
	"extensionsRequired":[
		"KHR_texture_transform"
	],
	"scene":0,
	"scenes":[
		{
			"name":"Scene",
			"nodes":[
				0,
				1,
				2,
				3,
				4,
				5
			]
		}
	],
	"nodes":[
		{
			"mesh":0,
			"name":"control panel"
		},
		{
			"mesh":1,
			"name":"new assembler"
		},
		{
			"mesh":2,
			"name":"F\u00e5ngare",
			"translation":[
				0,
				-4,
				-2
			]
		},
		{
			"mesh":3,
			"name":"F\u00e5ngare.001",
			"translation":[
				0,
				-4,
				0
			]
		},
		{
			"mesh":4,
			"name":"F\u00e5ngare.002",
			"rotation":[
				0,
				-1,
				0,
				1.6292068494294654e-07
			],
			"translation":[
				-2,
				-4,
				0
			]
		},
		{
			"mesh":5,
			"name":"KloArm"
		}
	],
	"animations":[
		{
			"channels":[
				{
					"sampler":0,
					"target":{
						"node":0,
						"path":"translation"
					}
				},
				{
					"sampler":1,
					"target":{
						"node":0,
						"path":"rotation"
					}
				},
				{
					"sampler":2,
					"target":{
						"node":0,
						"path":"scale"
					}
				}
			],
			"name":"control panel",
			"samplers":[
				{
					"input":49,
					"interpolation":"LINEAR",
					"output":50
				},
				{
					"input":49,
					"interpolation":"LINEAR",
					"output":51
				},
				{
					"input":49,
					"interpolation":"LINEAR",
					"output":52
				}
			]
		},
		{
			"channels":[
				{
					"sampler":0,
					"target":{
						"node":5,
						"path":"translation"
					}
				},
				{
					"sampler":1,
					"target":{
						"node":5,
						"path":"rotation"
					}
				},
				{
					"sampler":2,
					"target":{
						"node":5,
						"path":"scale"
					}
				}
			],
			"name":"KloArm",
			"samplers":[
				{
					"input":49,
					"interpolation":"LINEAR",
					"output":53
				},
				{
					"input":49,
					"interpolation":"LINEAR",
					"output":54
				},
				{
					"input":49,
					"interpolation":"LINEAR",
					"output":55
				}
			]
		},
		{
			"channels":[
				{
					"sampler":0,
					"target":{
						"node":1,
						"path":"translation"
					}
				},
				{
					"sampler":1,
					"target":{
						"node":1,
						"path":"rotation"
					}
				},
				{
					"sampler":2,
					"target":{
						"node":1,
						"path":"scale"
					}
				}
			],
			"name":"new assembler",
			"samplers":[
				{
					"input":49,
					"interpolation":"LINEAR",
					"output":56
				},
				{
					"input":49,
					"interpolation":"LINEAR",
					"output":57
				},
				{
					"input":49,
					"interpolation":"LINEAR",
					"output":58
				}
			]
		},
		{
			"channels":[
				{
					"sampler":0,
					"target":{
						"node":2,
						"path":"translation"
					}
				},
				{
					"sampler":1,
					"target":{
						"node":2,
						"path":"rotation"
					}
				},
				{
					"sampler":2,
					"target":{
						"node":2,
						"path":"scale"
					}
				}
			],
			"name":"F\u00e5ngare",
			"samplers":[
				{
					"input":49,
					"interpolation":"LINEAR",
					"output":59
				},
				{
					"input":49,
					"interpolation":"LINEAR",
					"output":60
				},
				{
					"input":49,
					"interpolation":"LINEAR",
					"output":61
				}
			]
		},
		{
			"channels":[
				{
					"sampler":0,
					"target":{
						"node":3,
						"path":"translation"
					}
				},
				{
					"sampler":1,
					"target":{
						"node":3,
						"path":"rotation"
					}
				},
				{
					"sampler":2,
					"target":{
						"node":3,
						"path":"scale"
					}
				}
			],
			"name":"F\u00e5ngare.001",
			"samplers":[
				{
					"input":49,
					"interpolation":"LINEAR",
					"output":62
				},
				{
					"input":49,
					"interpolation":"LINEAR",
					"output":63
				},
				{
					"input":49,
					"interpolation":"LINEAR",
					"output":64
				}
			]
		},
		{
			"channels":[
				{
					"sampler":0,
					"target":{
						"node":4,
						"path":"translation"
					}
				},
				{
					"sampler":1,
					"target":{
						"node":4,
						"path":"rotation"
					}
				},
				{
					"sampler":2,
					"target":{
						"node":4,
						"path":"scale"
					}
				}
			],
			"name":"F\u00e5ngare.002",
			"samplers":[
				{
					"input":49,
					"interpolation":"LINEAR",
					"output":65
				},
				{
					"input":49,
					"interpolation":"LINEAR",
					"output":66
				},
				{
					"input":49,
					"interpolation":"LINEAR",
					"output":67
				}
			]
		}
	],
	"materials":[
		{
			"doubleSided":true,
			"name":"SvartMetall",
			"pbrMetallicRoughness":{
				"baseColorFactor":[
					0,
					0,
					0,
					1
				],
				"roughnessFactor":0.699999988079071
			}
		},
		{
			"alphaMode":"BLEND",
			"doubleSided":true,
			"name":"MetallgallerMaterial",
			"pbrMetallicRoughness":{
				"baseColorTexture":{
					"extensions":{
						"KHR_texture_transform":{
							"offset":[
								0,
								0.75
							],
							"scale":[
								0.25,
								0.25
							]
						}
					},
					"index":0
				},
				"roughnessFactor":0.19999998807907104
			}
		},
		{
			"doubleSided":true,
			"name":"Green",
			"pbrMetallicRoughness":{
				"baseColorFactor":[
					0.07884861528873444,
					0.6444607377052307,
					0.06280238926410675,
					1
				],
				"metallicFactor":0,
				"roughnessFactor":0.5
			}
		},
		{
			"doubleSided":true,
			"name":"Red",
			"pbrMetallicRoughness":{
				"baseColorFactor":[
					0.5805105566978455,
					0.005184999667108059,
					0.0047720689326524734,
					1
				],
				"metallicFactor":0,
				"roughnessFactor":0.5
			}
		},
		{
			"doubleSided":true,
			"name":"Blue plastic",
			"pbrMetallicRoughness":{
				"baseColorFactor":[
					0.12835189700126648,
					0.1559724360704422,
					0.8000000715255737,
					1
				],
				"metallicFactor":0,
				"roughnessFactor":0.699999988079071
			}
		},
		{
			"doubleSided":true,
			"name":"Metal",
			"pbrMetallicRoughness":{
				"baseColorFactor":[
					0.6618608832359314,
					0.6618608832359314,
					0.6618608832359314,
					1
				],
				"roughnessFactor":0.10000000149011612
			}
		},
		{
			"doubleSided":true,
			"name":"Black plastic",
			"pbrMetallicRoughness":{
				"baseColorFactor":[
					0.01599441096186638,
					0.01599441096186638,
					0.01599441096186638,
					1
				],
				"metallicFactor":0,
				"roughnessFactor":0.800000011920929
			}
		},
		{
			"doubleSided":true,
			"name":"Orange",
			"pbrMetallicRoughness":{
				"baseColorFactor":[
					0.5394794940948486,
					0.26225045323371887,
					0.08650051802396774,
					1
				],
				"metallicFactor":0,
				"roughnessFactor":0.699999988079071
			}
		}
	],
	"meshes":[
		{
			"name":"Plane",
			"primitives":[
				{
					"attributes":{
						"POSITION":0,
						"TEXCOORD_0":1,
						"NORMAL":2
					},
					"indices":3,
					"material":0
				},
				{
					"attributes":{
						"POSITION":4,
						"TEXCOORD_0":5,
						"NORMAL":6
					},
					"indices":7
				},
				{
					"attributes":{
						"POSITION":8,
						"TEXCOORD_0":9,
						"NORMAL":10
					},
					"indices":11,
					"material":1
				},
				{
					"attributes":{
						"POSITION":12,
						"TEXCOORD_0":13,
						"NORMAL":14
					},
					"indices":15,
					"material":2
				},
				{
					"attributes":{
						"POSITION":16,
						"TEXCOORD_0":17,
						"NORMAL":18
					},
					"indices":15,
					"material":3
				}
			]
		},
		{
			"name":"Cube.011",
			"primitives":[
				{
					"attributes":{
						"POSITION":19,
						"TEXCOORD_0":20,
						"NORMAL":21
					},
					"indices":22
				},
				{
					"attributes":{
						"POSITION":23,
						"TEXCOORD_0":24,
						"NORMAL":25
					},
					"indices":26
				}
			]
		},
		{
			"name":"Cube.015",
			"primitives":[
				{
					"attributes":{
						"POSITION":27,
						"TEXCOORD_0":28,
						"NORMAL":29
					},
					"indices":30,
					"material":4
				}
			]
		},
		{
			"name":"Cube.021",
			"primitives":[
				{
					"attributes":{
						"POSITION":31,
						"TEXCOORD_0":32,
						"NORMAL":33
					},
					"indices":30,
					"material":4
				}
			]
		},
		{
			"name":"Cube.022",
			"primitives":[
				{
					"attributes":{
						"POSITION":34,
						"TEXCOORD_0":35,
						"NORMAL":36
					},
					"indices":30,
					"material":4
				}
			]
		},
		{
			"name":"Cube.016",
			"primitives":[
				{
					"attributes":{
						"POSITION":37,
						"TEXCOORD_0":38,
						"NORMAL":39
					},
					"indices":40,
					"material":5
				},
				{
					"attributes":{
						"POSITION":41,
						"TEXCOORD_0":42,
						"NORMAL":43
					},
					"indices":44,
					"material":6
				},
				{
					"attributes":{
						"POSITION":45,
						"TEXCOORD_0":46,
						"NORMAL":47
					},
					"indices":48,
					"material":7
				}
			]
		}
	],
	"textures":[
		{
			"sampler":0,
			"source":0
		}
	],
	"images":[
		{
			"bufferView":12,
			"mimeType":"image/png",
			"name":"Metallgaller"
		}
	],
	"accessors":[
		{
			"bufferView":0,
			"componentType":5126,
			"count":59,
			"max":[
				-0.10000000149011612,
				0.9807834625244141,
				-3.0999999046325684
			],
			"min":[
				-2.799999952316284,
				0.000999998301267624,
				-4.699999809265137
			],
			"type":"VEC3"
		},
		{
			"bufferView":1,
			"componentType":5126,
			"count":59,
			"type":"VEC2"
		},
		{
			"bufferView":2,
			"componentType":5126,
			"count":59,
			"type":"VEC3"
		},
		{
			"bufferView":3,
			"componentType":5123,
			"count":123,
			"type":"SCALAR"
		},
		{
			"bufferView":4,
			"componentType":5126,
			"count":144,
			"max":[
				0.800000011920929,
				2.700000047683716,
				-3.0999999046325684
			],
			"min":[
				-0.30000001192092896,
				0.000999998301267624,
				-4.699999809265137
			],
			"type":"VEC3"
		},
		{
			"bufferView":5,
			"componentType":5126,
			"count":144,
			"type":"VEC2"
		},
		{
			"bufferView":6,
			"componentType":5126,
			"count":144,
			"type":"VEC3"
		},
		{
			"bufferView":7,
			"componentType":5123,
			"count":312,
			"type":"SCALAR"
		},
		{
			"bufferView":8,
			"componentType":5126,
			"count":5,
			"max":[
				-0.30000001192092896,
				0.0010000000474974513,
				-3.299999952316284
			],
			"min":[
				-2.2739601135253906,
				0.0010000000474974513,
				-4.5
			],
			"type":"VEC3"
		},
		{
			"bufferView":9,
			"componentType":5126,
			"count":5,
			"type":"VEC2"
		},
		{
			"bufferView":10,
			"componentType":5126,
			"count":5,
			"type":"VEC3"
		},
		{
			"bufferView":11,
			"componentType":5123,
			"count":9,
			"type":"SCALAR"
		},
		{
			"bufferView":13,
			"componentType":5126,
			"count":20,
			"max":[
				-0.21075209975242615,
				0.9729881882667542,
				-3.126422882080078
			],
			"min":[
				-0.22396644949913025,
				0.9281975626945496,
				-3.1712136268615723
			],
			"type":"VEC3"
		},
		{
			"bufferView":14,
			"componentType":5126,
			"count":20,
			"type":"VEC2"
		},
		{
			"bufferView":15,
			"componentType":5126,
			"count":20,
			"type":"VEC3"
		},
		{
			"bufferView":16,
			"componentType":5123,
			"count":30,
			"type":"SCALAR"
		},
		{
			"bufferView":17,
			"componentType":5126,
			"count":20,
			"max":[
				-0.21075209975242615,
				0.9729881882667542,
				-3.247185468673706
			],
			"min":[
				-0.22396644949913025,
				0.9281975626945496,
				-3.291975975036621
			],
			"type":"VEC3"
		},
		{
			"bufferView":18,
			"componentType":5126,
			"count":20,
			"type":"VEC2"
		},
		{
			"bufferView":19,
			"componentType":5126,
			"count":20,
			"type":"VEC3"
		},
		{
			"bufferView":20,
			"componentType":5126,
			"count":300,
			"max":[
				0.7999999523162842,
				3.200000047683716,
				1.1000001430511475
			],
			"min":[
				-2.799999952316284,
				0,
				-3.0999999046325684
			],
			"type":"VEC3"
		},
		{
			"bufferView":21,
			"componentType":5126,
			"count":300,
			"type":"VEC2"
		},
		{
			"bufferView":22,
			"componentType":5126,
			"count":300,
			"type":"VEC3"
		},
		{
			"bufferView":23,
			"componentType":5123,
			"count":735,
			"type":"SCALAR"
		},
		{
			"bufferView":24,
			"componentType":5126,
			"count":43,
			"max":[
				-0.04702097177505493,
				2.5,
				1.1000001430511475
			],
			"min":[
				-2.799999952316284,
				1.2999999523162842,
				-2.9000000953674316
			],
			"type":"VEC3"
		},
		{
			"bufferView":25,
			"componentType":5126,
			"count":43,
			"type":"VEC2"
		},
		{
			"bufferView":26,
			"componentType":5126,
			"count":43,
			"type":"VEC3"
		},
		{
			"bufferView":27,
			"componentType":5123,
			"count":75,
			"type":"SCALAR"
		},
		{
			"bufferView":28,
			"componentType":5126,
			"count":383,
			"max":[
				0.800000011920929,
				5.2675652503967285,
				0.9000000953674316
			],
			"min":[
				-1,
				5,
				-0.9000000953674316
			],
			"type":"VEC3"
		},
		{
			"bufferView":29,
			"componentType":5126,
			"count":383,
			"type":"VEC2"
		},
		{
			"bufferView":30,
			"componentType":5126,
			"count":383,
			"type":"VEC3"
		},
		{
			"bufferView":31,
			"componentType":5123,
			"count":930,
			"type":"SCALAR"
		},
		{
			"bufferView":32,
			"componentType":5126,
			"count":383,
			"max":[
				0.800000011920929,
				5.2675652503967285,
				0.9000000953674316
			],
			"min":[
				-1,
				5,
				-0.9000000953674316
			],
			"type":"VEC3"
		},
		{
			"bufferView":33,
			"componentType":5126,
			"count":383,
			"type":"VEC2"
		},
		{
			"bufferView":34,
			"componentType":5126,
			"count":383,
			"type":"VEC3"
		},
		{
			"bufferView":35,
			"componentType":5126,
			"count":383,
			"max":[
				0.800000011920929,
				5.2675652503967285,
				0.9000000953674316
			],
			"min":[
				-1,
				5,
				-0.9000000953674316
			],
			"type":"VEC3"
		},
		{
			"bufferView":36,
			"componentType":5126,
			"count":383,
			"type":"VEC2"
		},
		{
			"bufferView":37,
			"componentType":5126,
			"count":383,
			"type":"VEC3"
		},
		{
			"bufferView":38,
			"componentType":5126,
			"count":34,
			"max":[
				0.039607636630535126,
				2.0112006664276123,
				0.07326006144285202
			],
			"min":[
				-0.10691248625516891,
				1.8244774341583252,
				-0.07326006144285202
			],
			"type":"VEC3"
		},
		{
			"bufferView":39,
			"componentType":5126,
			"count":34,
			"type":"VEC2"
		},
		{
			"bufferView":40,
			"componentType":5126,
			"count":34,
			"type":"VEC3"
		},
		{
			"bufferView":41,
			"componentType":5123,
			"count":96,
			"type":"SCALAR"
		},
		{
			"bufferView":42,
			"componentType":5126,
			"count":388,
			"max":[
				0.4147317707538605,
				2.473717451095581,
				0.8400000333786011
			],
			"min":[
				-2.3246119022369385,
				1.570468783378601,
				-2.8399999141693115
			],
			"type":"VEC3"
		},
		{
			"bufferView":43,
			"componentType":5126,
			"count":388,
			"type":"VEC2"
		},
		{
			"bufferView":44,
			"componentType":5126,
			"count":388,
			"type":"VEC3"
		},
		{
			"bufferView":45,
			"componentType":5123,
			"count":888,
			"type":"SCALAR"
		},
		{
			"bufferView":46,
			"componentType":5126,
			"count":4279,
			"max":[
				0.439791738986969,
				2.5037176609039307,
				0.8500000238418579
			],
			"min":[
				-2.3246119022369385,
				1.6944329738616943,
				-2.8499999046325684
			],
			"type":"VEC3"
		},
		{
			"bufferView":47,
			"componentType":5126,
			"count":4279,
			"type":"VEC2"
		},
		{
			"bufferView":48,
			"componentType":5126,
			"count":4279,
			"type":"VEC3"
		},
		{
			"bufferView":49,
			"componentType":5123,
			"count":8232,
			"type":"SCALAR"
		},
		{
			"bufferView":50,
			"componentType":5126,
			"count":486,
			"max":[
				8.083333333333334
			],
			"min":[
				0
			],
			"type":"SCALAR"
		},
		{
			"bufferView":51,
			"componentType":5126,
			"count":486,
			"type":"VEC3"
		},
		{
			"bufferView":52,
			"componentType":5126,
			"count":486,
			"type":"VEC4"
		},
		{
			"bufferView":53,
			"componentType":5126,
			"count":486,
			"type":"VEC3"
		},
		{
			"bufferView":54,
			"componentType":5126,
			"count":486,
			"type":"VEC3"
		},
		{
			"bufferView":55,
			"componentType":5126,
			"count":486,
			"type":"VEC4"
		},
		{
			"bufferView":56,
			"componentType":5126,
			"count":486,
			"type":"VEC3"
		},
		{
			"bufferView":57,
			"componentType":5126,
			"count":486,
			"type":"VEC3"
		},
		{
			"bufferView":58,
			"componentType":5126,
			"count":486,
			"type":"VEC4"
		},
		{
			"bufferView":59,
			"componentType":5126,
			"count":486,
			"type":"VEC3"
		},
		{
			"bufferView":60,
			"componentType":5126,
			"count":486,
			"type":"VEC3"
		},
		{
			"bufferView":61,
			"componentType":5126,
			"count":486,
			"type":"VEC4"
		},
		{
			"bufferView":62,
			"componentType":5126,
			"count":486,
			"type":"VEC3"
		},
		{
			"bufferView":63,
			"componentType":5126,
			"count":486,
			"type":"VEC3"
		},
		{
			"bufferView":64,
			"componentType":5126,
			"count":486,
			"type":"VEC4"
		},
		{
			"bufferView":65,
			"componentType":5126,
			"count":486,
			"type":"VEC3"
		},
		{
			"bufferView":66,
			"componentType":5126,
			"count":486,
			"type":"VEC3"
		},
		{
			"bufferView":67,
			"componentType":5126,
			"count":486,
			"type":"VEC4"
		},
		{
			"bufferView":68,
			"componentType":5126,
			"count":486,
			"type":"VEC3"
		}
	],
	"bufferViews":[
		{
			"buffer":0,
			"byteLength":708,
			"byteOffset":0,
			"target":34962
		},
		{
			"buffer":0,
			"byteLength":472,
			"byteOffset":708,
			"target":34962
		},
		{
			"buffer":0,
			"byteLength":708,
			"byteOffset":1180,
			"target":34962
		},
		{
			"buffer":0,
			"byteLength":246,
			"byteOffset":1888,
			"target":34963
		},
		{
			"buffer":0,
			"byteLength":1728,
			"byteOffset":2136,
			"target":34962
		},
		{
			"buffer":0,
			"byteLength":1152,
			"byteOffset":3864,
			"target":34962
		},
		{
			"buffer":0,
			"byteLength":1728,
			"byteOffset":5016,
			"target":34962
		},
		{
			"buffer":0,
			"byteLength":624,
			"byteOffset":6744,
			"target":34963
		},
		{
			"buffer":0,
			"byteLength":60,
			"byteOffset":7368,
			"target":34962
		},
		{
			"buffer":0,
			"byteLength":40,
			"byteOffset":7428,
			"target":34962
		},
		{
			"buffer":0,
			"byteLength":60,
			"byteOffset":7468,
			"target":34962
		},
		{
			"buffer":0,
			"byteLength":18,
			"byteOffset":7528,
			"target":34963
		},
		{
			"buffer":0,
			"byteLength":457,
			"byteOffset":7548
		},
		{
			"buffer":0,
			"byteLength":240,
			"byteOffset":8008,
			"target":34962
		},
		{
			"buffer":0,
			"byteLength":160,
			"byteOffset":8248,
			"target":34962
		},
		{
			"buffer":0,
			"byteLength":240,
			"byteOffset":8408,
			"target":34962
		},
		{
			"buffer":0,
			"byteLength":60,
			"byteOffset":8648,
			"target":34963
		},
		{
			"buffer":0,
			"byteLength":240,
			"byteOffset":8708,
			"target":34962
		},
		{
			"buffer":0,
			"byteLength":160,
			"byteOffset":8948,
			"target":34962
		},
		{
			"buffer":0,
			"byteLength":240,
			"byteOffset":9108,
			"target":34962
		},
		{
			"buffer":0,
			"byteLength":3600,
			"byteOffset":9348,
			"target":34962
		},
		{
			"buffer":0,
			"byteLength":2400,
			"byteOffset":12948,
			"target":34962
		},
		{
			"buffer":0,
			"byteLength":3600,
			"byteOffset":15348,
			"target":34962
		},
		{
			"buffer":0,
			"byteLength":1470,
			"byteOffset":18948,
			"target":34963
		},
		{
			"buffer":0,
			"byteLength":516,
			"byteOffset":20420,
			"target":34962
		},
		{
			"buffer":0,
			"byteLength":344,
			"byteOffset":20936,
			"target":34962
		},
		{
			"buffer":0,
			"byteLength":516,
			"byteOffset":21280,
			"target":34962
		},
		{
			"buffer":0,
			"byteLength":150,
			"byteOffset":21796,
			"target":34963
		},
		{
			"buffer":0,
			"byteLength":4596,
			"byteOffset":21948,
			"target":34962
		},
		{
			"buffer":0,
			"byteLength":3064,
			"byteOffset":26544,
			"target":34962
		},
		{
			"buffer":0,
			"byteLength":4596,
			"byteOffset":29608,
			"target":34962
		},
		{
			"buffer":0,
			"byteLength":1860,
			"byteOffset":34204,
			"target":34963
		},
		{
			"buffer":0,
			"byteLength":4596,
			"byteOffset":36064,
			"target":34962
		},
		{
			"buffer":0,
			"byteLength":3064,
			"byteOffset":40660,
			"target":34962
		},
		{
			"buffer":0,
			"byteLength":4596,
			"byteOffset":43724,
			"target":34962
		},
		{
			"buffer":0,
			"byteLength":4596,
			"byteOffset":48320,
			"target":34962
		},
		{
			"buffer":0,
			"byteLength":3064,
			"byteOffset":52916,
			"target":34962
		},
		{
			"buffer":0,
			"byteLength":4596,
			"byteOffset":55980,
			"target":34962
		},
		{
			"buffer":0,
			"byteLength":408,
			"byteOffset":60576,
			"target":34962
		},
		{
			"buffer":0,
			"byteLength":272,
			"byteOffset":60984,
			"target":34962
		},
		{
			"buffer":0,
			"byteLength":408,
			"byteOffset":61256,
			"target":34962
		},
		{
			"buffer":0,
			"byteLength":192,
			"byteOffset":61664,
			"target":34963
		},
		{
			"buffer":0,
			"byteLength":4656,
			"byteOffset":61856,
			"target":34962
		},
		{
			"buffer":0,
			"byteLength":3104,
			"byteOffset":66512,
			"target":34962
		},
		{
			"buffer":0,
			"byteLength":4656,
			"byteOffset":69616,
			"target":34962
		},
		{
			"buffer":0,
			"byteLength":1776,
			"byteOffset":74272,
			"target":34963
		},
		{
			"buffer":0,
			"byteLength":51348,
			"byteOffset":76048,
			"target":34962
		},
		{
			"buffer":0,
			"byteLength":34232,
			"byteOffset":127396,
			"target":34962
		},
		{
			"buffer":0,
			"byteLength":51348,
			"byteOffset":161628,
			"target":34962
		},
		{
			"buffer":0,
			"byteLength":16464,
			"byteOffset":212976,
			"target":34963
		},
		{
			"buffer":0,
			"byteLength":1944,
			"byteOffset":229440
		},
		{
			"buffer":0,
			"byteLength":5832,
			"byteOffset":231384
		},
		{
			"buffer":0,
			"byteLength":7776,
			"byteOffset":237216
		},
		{
			"buffer":0,
			"byteLength":5832,
			"byteOffset":244992
		},
		{
			"buffer":0,
			"byteLength":5832,
			"byteOffset":250824
		},
		{
			"buffer":0,
			"byteLength":7776,
			"byteOffset":256656
		},
		{
			"buffer":0,
			"byteLength":5832,
			"byteOffset":264432
		},
		{
			"buffer":0,
			"byteLength":5832,
			"byteOffset":270264
		},
		{
			"buffer":0,
			"byteLength":7776,
			"byteOffset":276096
		},
		{
			"buffer":0,
			"byteLength":5832,
			"byteOffset":283872
		},
		{
			"buffer":0,
			"byteLength":5832,
			"byteOffset":289704
		},
		{
			"buffer":0,
			"byteLength":7776,
			"byteOffset":295536
		},
		{
			"buffer":0,
			"byteLength":5832,
			"byteOffset":303312
		},
		{
			"buffer":0,
			"byteLength":5832,
			"byteOffset":309144
		},
		{
			"buffer":0,
			"byteLength":7776,
			"byteOffset":314976
		},
		{
			"buffer":0,
			"byteLength":5832,
			"byteOffset":322752
		},
		{
			"buffer":0,
			"byteLength":5832,
			"byteOffset":328584
		},
		{
			"buffer":0,
			"byteLength":7776,
			"byteOffset":334416
		},
		{
			"buffer":0,
			"byteLength":5832,
			"byteOffset":342192
		}
	],
	"samplers":[
		{
			"magFilter":9729,
			"minFilter":9987
		}
	],
	"buffers":[
		{
			"byteLength":348024,
			"uri":"data:application/octet-stream;base64,"
		}
	]
}
