{
	"asset":{
		"generator":"Khronos glTF Blender I/O v3.5.30",
		"version":"2.0"
	},
	"scene":0,
	"scenes":[
		{
			"name":"Scene",
			"nodes":[
				0,
				1
			]
		}
	],
	"nodes":[
		{
			"mesh":0,
			"name":"texter",
			"translation":[
				0,
				1,
				0
			]
		},
		{
			"mesh":1,
			"name":"Bas"
		}
	],
	"materials":[
		{
			"doubleSided":true,
			"emissiveFactor":[
				0.0006064259214326739,
				0.7991027235984802,
				0
			],
			"name":"Gr\u00f6n",
			"pbrMetallicRoughness":{
				"baseColorFactor":[
					0.0006064259214326739,
					0.7991027235984802,
					0,
					1
				],
				"roughnessFactor":0.10000000149011612
			}
		},
		{
			"doubleSided":true,
			"emissiveFactor":[
				0.7991026639938354,
				0.6866849660873413,
				0
			],
			"name":"Gul",
			"pbrMetallicRoughness":{
				"baseColorFactor":[
					0.7991026639938354,
					0.6866849660873413,
					0,
					1
				],
				"roughnessFactor":0.10000000149011612
			}
		},
		{
			"doubleSided":true,
			"name":"Floor",
			"pbrMetallicRoughness":{
				"baseColorTexture":{
					"index":0
				},
				"metallicFactor":0,
				"roughnessFactor":0.800000011920929
			}
		}
	],
	"meshes":[
		{
			"name":"Plane.001",
			"primitives":[
				{
					"attributes":{
						"POSITION":0,
						"TEXCOORD_0":1,
						"NORMAL":2
					},
					"indices":3,
					"material":0
				},
				{
					"attributes":{
						"POSITION":4,
						"TEXCOORD_0":5,
						"NORMAL":6
					},
					"indices":7,
					"material":1
				}
			]
		},
		{
			"name":"Plane.002",
			"primitives":[
				{
					"attributes":{
						"POSITION":8,
						"TEXCOORD_0":9,
						"NORMAL":10
					},
					"indices":11,
					"material":2
				}
			]
		}
	],
	"textures":[
		{
			"sampler":0,
			"source":0
		}
	],
	"images":[
		{
			"bufferView":12,
			"mimeType":"image/png",
			"name":"floortexture"
		}
	],
	"accessors":[
		{
			"bufferView":0,
			"componentType":5126,
			"count":9541,
			"max":[
				10.003629684448242,
				2.2918295860290527,
				3.512930393218994
			],
			"min":[
				9.95284366607666,
				1.993094801902771,
				-3.969566822052002
			],
			"type":"VEC3"
		},
		{
			"bufferView":1,
			"componentType":5126,
			"count":9541,
			"type":"VEC2"
		},
		{
			"bufferView":2,
			"componentType":5126,
			"count":9541,
			"type":"VEC3"
		},
		{
			"bufferView":3,
			"componentType":5123,
			"count":16446,
			"type":"SCALAR"
		},
		{
			"bufferView":4,
			"componentType":5126,
			"count":5132,
			"max":[
				-7.054507255554199,
				2.2918295860290527,
				10
			],
			"min":[
				-9.01287841796875,
				1.993094801902771,
				9.949214935302734
			],
			"type":"VEC3"
		},
		{
			"bufferView":5,
			"componentType":5126,
			"count":5132,
			"type":"VEC2"
		},
		{
			"bufferView":6,
			"componentType":5126,
			"count":5132,
			"type":"VEC3"
		},
		{
			"bufferView":7,
			"componentType":5123,
			"count":8328,
			"type":"SCALAR"
		},
		{
			"bufferView":8,
			"componentType":5126,
			"count":158,
			"max":[
				10.199999809265137,
				13,
				10.199999809265137
			],
			"min":[
				-10.1414213180542,
				-0.11547007411718369,
				-10.1414213180542
			],
			"type":"VEC3"
		},
		{
			"bufferView":9,
			"componentType":5126,
			"count":158,
			"type":"VEC2"
		},
		{
			"bufferView":10,
			"componentType":5126,
			"count":158,
			"type":"VEC3"
		},
		{
			"bufferView":11,
			"componentType":5123,
			"count":288,
			"type":"SCALAR"
		}
	],
	"bufferViews":[
		{
			"buffer":0,
			"byteLength":114492,
			"byteOffset":0,
			"target":34962
		},
		{
			"buffer":0,
			"byteLength":76328,
			"byteOffset":114492,
			"target":34962
		},
		{
			"buffer":0,
			"byteLength":114492,
			"byteOffset":190820,
			"target":34962
		},
		{
			"buffer":0,
			"byteLength":32892,
			"byteOffset":305312,
			"target":34963
		},
		{
			"buffer":0,
			"byteLength":61584,
			"byteOffset":338204,
			"target":34962
		},
		{
			"buffer":0,
			"byteLength":41056,
			"byteOffset":399788,
			"target":34962
		},
		{
			"buffer":0,
			"byteLength":61584,
			"byteOffset":440844,
			"target":34962
		},
		{
			"buffer":0,
			"byteLength":16656,
			"byteOffset":502428,
			"target":34963
		},
		{
			"buffer":0,
			"byteLength":1896,
			"byteOffset":519084,
			"target":34962
		},
		{
			"buffer":0,
			"byteLength":1264,
			"byteOffset":520980,
			"target":34962
		},
		{
			"buffer":0,
			"byteLength":1896,
			"byteOffset":522244,
			"target":34962
		},
		{
			"buffer":0,
			"byteLength":576,
			"byteOffset":524140,
			"target":34963
		},
		{
			"buffer":0,
			"byteLength":2558,
			"byteOffset":524716
		}
	],
	"samplers":[
		{
			"magFilter":9729,
			"minFilter":9987
		}
	],
	"buffers":[
		{
			"byteLength":527276,
			"uri":"data:application/octet-stream;base64,"
		}
	]
}
