{
	"asset":{
		"generator":"Khronos glTF Blender I/O v3.5.30",
		"version":"2.0"
	},
	"extensionsUsed":[
		"KHR_materials_emissive_strength"
	],
	"scene":0,
	"scenes":[
		{
			"name":"Scene",
			"nodes":[
				0,
				2,
				3
			]
		}
	],
	"nodes":[
		{
			"mesh":0,
			"name":"texter",
			"translation":[
				0,
				1,
				0
			]
		},
		{
			"mesh":1,
			"name":"Lights",
			"rotation":[
				-1,
				0,
				0,
				2.821299744937278e-07
			],
			"translation":[
				0,
				3.830827236175537,
				0
			]
		},
		{
			"children":[
				1
			],
			"mesh":2,
			"name":"Bas"
		},
		{
			"mesh":3,
			"name":"Floodlights",
			"translation":[
				5.3702497482299805,
				16.648380279541016,
				9.821544647216797
			]
		}
	],
	"materials":[
		{
			"doubleSided":true,
			"emissiveFactor":[
				0.0006064259214326739,
				0.7991027235984802,
				0
			],
			"name":"Gr\u00f6n",
			"pbrMetallicRoughness":{
				"baseColorFactor":[
					0.0006064259214326739,
					0.7991027235984802,
					0,
					1
				],
				"roughnessFactor":0.10000000149011612
			}
		},
		{
			"doubleSided":true,
			"emissiveFactor":[
				0.7991026639938354,
				0.6866849660873413,
				0
			],
			"name":"Gul",
			"pbrMetallicRoughness":{
				"baseColorFactor":[
					0.7991026639938354,
					0.6866849660873413,
					0,
					1
				],
				"roughnessFactor":0.10000000149011612
			}
		},
		{
			"doubleSided":true,
			"name":"LampCasing",
			"pbrMetallicRoughness":{
				"baseColorFactor":[
					0.16264104843139648,
					0.16264104843139648,
					0.16264104843139648,
					1
				],
				"roughnessFactor":0.6000000238418579
			}
		},
		{
			"doubleSided":true,
			"emissiveFactor":[
				1,
				0.6628186106681824,
				0.4506383240222931
			],
			"extensions":{
				"KHR_materials_emissive_strength":{
					"emissiveStrength":250
				}
			},
			"name":"Lamp",
			"pbrMetallicRoughness":{
				"baseColorFactor":[
					0.800000011920929,
					0.800000011920929,
					0.800000011920929,
					1
				],
				"metallicFactor":0,
				"roughnessFactor":0.5
			}
		},
		{
			"doubleSided":true,
			"name":"Floor",
			"pbrMetallicRoughness":{
				"baseColorTexture":{
					"index":0
				},
				"metallicFactor":0,
				"roughnessFactor":0.800000011920929
			}
		}
	],
	"meshes":[
		{
			"name":"Plane.001",
			"primitives":[
				{
					"attributes":{
						"POSITION":0,
						"TEXCOORD_0":1,
						"NORMAL":2
					},
					"indices":3,
					"material":0
				},
				{
					"attributes":{
						"POSITION":4,
						"TEXCOORD_0":5,
						"NORMAL":6
					},
					"indices":7,
					"material":1
				}
			]
		},
		{
			"name":"Cube.001",
			"primitives":[
				{
					"attributes":{
						"POSITION":8,
						"TEXCOORD_0":9,
						"NORMAL":10
					},
					"indices":11,
					"material":2
				},
				{
					"attributes":{
						"POSITION":12,
						"TEXCOORD_0":13,
						"NORMAL":14
					},
					"indices":15,
					"material":3
				}
			]
		},
		{
			"name":"Plane.002",
			"primitives":[
				{
					"attributes":{
						"POSITION":16,
						"TEXCOORD_0":17,
						"NORMAL":18
					},
					"indices":19,
					"material":4
				}
			]
		},
		{
			"name":"Cube.002",
			"primitives":[
				{
					"attributes":{
						"POSITION":20,
						"TEXCOORD_0":21,
						"NORMAL":22
					},
					"indices":23,
					"material":2
				},
				{
					"attributes":{
						"POSITION":24,
						"TEXCOORD_0":25,
						"NORMAL":26
					},
					"indices":27,
					"material":3
				}
			]
		}
	],
	"textures":[
		{
			"sampler":0,
			"source":0
		}
	],
	"images":[
		{
			"bufferView":20,
			"mimeType":"image/png",
			"name":"floortexture"
		}
	],
	"accessors":[
		{
			"bufferView":0,
			"componentType":5126,
			"count":9551,
			"max":[
				10.003629684448242,
				2.2918295860290527,
				4.512930393218994
			],
			"min":[
				9.95284366607666,
				1.993094801902771,
				-4.969566822052002
			],
			"type":"VEC3"
		},
		{
			"bufferView":1,
			"componentType":5126,
			"count":9551,
			"type":"VEC2"
		},
		{
			"bufferView":2,
			"componentType":5126,
			"count":9551,
			"type":"VEC3"
		},
		{
			"bufferView":3,
			"componentType":5123,
			"count":16446,
			"type":"SCALAR"
		},
		{
			"bufferView":4,
			"componentType":5126,
			"count":5132,
			"max":[
				-7.054507255554199,
				2.2918295860290527,
				10
			],
			"min":[
				-9.01287841796875,
				1.993094801902771,
				9.949214935302734
			],
			"type":"VEC3"
		},
		{
			"bufferView":5,
			"componentType":5126,
			"count":5132,
			"type":"VEC2"
		},
		{
			"bufferView":6,
			"componentType":5126,
			"count":5132,
			"type":"VEC3"
		},
		{
			"bufferView":7,
			"componentType":5123,
			"count":8328,
			"type":"SCALAR"
		},
		{
			"bufferView":8,
			"componentType":5126,
			"count":1440,
			"max":[
				10.053828239440918,
				0.15130682289600372,
				9.469619750976562
			],
			"min":[
				9.853827476501465,
				-0.048693180084228516,
				-9.530380249023438
			],
			"type":"VEC3"
		},
		{
			"bufferView":9,
			"componentType":5126,
			"count":1440,
			"type":"VEC2"
		},
		{
			"bufferView":10,
			"componentType":5126,
			"count":1440,
			"type":"VEC3"
		},
		{
			"bufferView":11,
			"componentType":5123,
			"count":2400,
			"type":"SCALAR"
		},
		{
			"bufferView":12,
			"componentType":5126,
			"count":200,
			"max":[
				10.009232521057129,
				0.1208995133638382,
				9.443105697631836
			],
			"min":[
				9.878594398498535,
				-0.03083043545484543,
				-9.503866195678711
			],
			"type":"VEC3"
		},
		{
			"bufferView":13,
			"componentType":5126,
			"count":200,
			"type":"VEC2"
		},
		{
			"bufferView":14,
			"componentType":5126,
			"count":200,
			"type":"VEC3"
		},
		{
			"bufferView":15,
			"componentType":5123,
			"count":300,
			"type":"SCALAR"
		},
		{
			"bufferView":16,
			"componentType":5126,
			"count":158,
			"max":[
				10.199999809265137,
				16,
				10.199999809265137
			],
			"min":[
				-10.1414213180542,
				-0.11547007411718369,
				-10.1414213180542
			],
			"type":"VEC3"
		},
		{
			"bufferView":17,
			"componentType":5126,
			"count":158,
			"type":"VEC2"
		},
		{
			"bufferView":18,
			"componentType":5126,
			"count":158,
			"type":"VEC3"
		},
		{
			"bufferView":19,
			"componentType":5123,
			"count":288,
			"type":"SCALAR"
		},
		{
			"bufferView":21,
			"componentType":5126,
			"count":972,
			"max":[
				1.895240068435669,
				1.4046545028686523,
				0.5273056030273438
			],
			"min":[
				-12.68571949005127,
				-0.9827690124511719,
				-1.2613821029663086
			],
			"type":"VEC3"
		},
		{
			"bufferView":22,
			"componentType":5126,
			"count":972,
			"type":"VEC2"
		},
		{
			"bufferView":23,
			"componentType":5126,
			"count":972,
			"type":"VEC3"
		},
		{
			"bufferView":24,
			"componentType":5123,
			"count":1716,
			"type":"SCALAR"
		},
		{
			"bufferView":25,
			"componentType":5126,
			"count":32,
			"max":[
				1.7772293090820312,
				1.1258726119995117,
				-0.054882049560546875
			],
			"min":[
				-12.567708969116211,
				0.053073883056640625,
				-1.1276798248291016
			],
			"type":"VEC3"
		},
		{
			"bufferView":26,
			"componentType":5126,
			"count":32,
			"type":"VEC2"
		},
		{
			"bufferView":27,
			"componentType":5126,
			"count":32,
			"type":"VEC3"
		},
		{
			"bufferView":28,
			"componentType":5123,
			"count":48,
			"type":"SCALAR"
		}
	],
	"bufferViews":[
		{
			"buffer":0,
			"byteLength":114612,
			"byteOffset":0,
			"target":34962
		},
		{
			"buffer":0,
			"byteLength":76408,
			"byteOffset":114612,
			"target":34962
		},
		{
			"buffer":0,
			"byteLength":114612,
			"byteOffset":191020,
			"target":34962
		},
		{
			"buffer":0,
			"byteLength":32892,
			"byteOffset":305632,
			"target":34963
		},
		{
			"buffer":0,
			"byteLength":61584,
			"byteOffset":338524,
			"target":34962
		},
		{
			"buffer":0,
			"byteLength":41056,
			"byteOffset":400108,
			"target":34962
		},
		{
			"buffer":0,
			"byteLength":61584,
			"byteOffset":441164,
			"target":34962
		},
		{
			"buffer":0,
			"byteLength":16656,
			"byteOffset":502748,
			"target":34963
		},
		{
			"buffer":0,
			"byteLength":17280,
			"byteOffset":519404,
			"target":34962
		},
		{
			"buffer":0,
			"byteLength":11520,
			"byteOffset":536684,
			"target":34962
		},
		{
			"buffer":0,
			"byteLength":17280,
			"byteOffset":548204,
			"target":34962
		},
		{
			"buffer":0,
			"byteLength":4800,
			"byteOffset":565484,
			"target":34963
		},
		{
			"buffer":0,
			"byteLength":2400,
			"byteOffset":570284,
			"target":34962
		},
		{
			"buffer":0,
			"byteLength":1600,
			"byteOffset":572684,
			"target":34962
		},
		{
			"buffer":0,
			"byteLength":2400,
			"byteOffset":574284,
			"target":34962
		},
		{
			"buffer":0,
			"byteLength":600,
			"byteOffset":576684,
			"target":34963
		},
		{
			"buffer":0,
			"byteLength":1896,
			"byteOffset":577284,
			"target":34962
		},
		{
			"buffer":0,
			"byteLength":1264,
			"byteOffset":579180,
			"target":34962
		},
		{
			"buffer":0,
			"byteLength":1896,
			"byteOffset":580444,
			"target":34962
		},
		{
			"buffer":0,
			"byteLength":576,
			"byteOffset":582340,
			"target":34963
		},
		{
			"buffer":0,
			"byteLength":2558,
			"byteOffset":582916
		},
		{
			"buffer":0,
			"byteLength":11664,
			"byteOffset":585476,
			"target":34962
		},
		{
			"buffer":0,
			"byteLength":7776,
			"byteOffset":597140,
			"target":34962
		},
		{
			"buffer":0,
			"byteLength":11664,
			"byteOffset":604916,
			"target":34962
		},
		{
			"buffer":0,
			"byteLength":3432,
			"byteOffset":616580,
			"target":34963
		},
		{
			"buffer":0,
			"byteLength":384,
			"byteOffset":620012,
			"target":34962
		},
		{
			"buffer":0,
			"byteLength":256,
			"byteOffset":620396,
			"target":34962
		},
		{
			"buffer":0,
			"byteLength":384,
			"byteOffset":620652,
			"target":34962
		},
		{
			"buffer":0,
			"byteLength":96,
			"byteOffset":621036,
			"target":34963
		}
	],
	"samplers":[
		{
			"magFilter":9729,
			"minFilter":9987
		}
	],
	"buffers":[
		{
			"byteLength":621132,
			"uri":"data:application/octet-stream;base64,"
		}
	]
}
