{
    "asset" : {
        "generator" : "Khronos glTF Blender I/O v3.3.32",
        "version" : "2.0"
    },
    "scene" : 0,
    "scenes" : [
        {
            "name" : "Scene",
            "nodes" : [
                0,
                1,
                2,
                3,
                4,
                5
            ]
        }
    ],
    "nodes" : [
        {
            "mesh" : 0,
            "name" : "Bas"
        },
        {
            "mesh" : 1,
            "name" : "hjul.002",
            "scale" : [
                2.5,
                2.5,
                2.5
            ],
            "translation" : [
                9.364675521850586,
                0.5083121657371521,
                0.7505571842193604
            ]
        },
        {
            "mesh" : 2,
            "name" : "hjul.001",
            "scale" : [
                2.5,
                2.5,
                2.5
            ],
            "translation" : [
                9.364675521850586,
                0.5083121657371521,
                -0.750892162322998
            ]
        },
        {
            "mesh" : 3,
            "name" : "hjul.003",
            "rotation" : [
                0,
                0,
                0.9917226433753967,
                0.1283986121416092
            ],
            "scale" : [
                2.5,
                2.5,
                2.5
            ],
            "translation" : [
                15.885689735412598,
                0.5083122253417969,
                -0.7508922815322876
            ]
        },
        {
            "mesh" : 4,
            "name" : "hjul.004",
            "rotation" : [
                0,
                0,
                0.9917226433753967,
                0.1283986121416092
            ],
            "scale" : [
                2.5,
                2.5,
                2.5
            ],
            "translation" : [
                15.885689735412598,
                0.5083122253417969,
                0.750557541847229
            ]
        },
        {
            "mesh" : 5,
            "name" : "belt",
            "scale" : [
                2.5,
                2.5,
                2.5
            ],
            "translation" : [
                10.139491081237793,
                0.008312195539474487,
                0.00015454291133210063
            ]
        }
    ],
    "materials" : [
        {
            "doubleSided" : true,
            "name" : "Material",
            "pbrMetallicRoughness" : {
                "baseColorTexture" : {
                    "index" : 0
                },
                "metallicFactor" : 0,
                "roughnessFactor" : 0.800000011920929
            }
        },
        {
            "doubleSided" : true,
            "name" : "Kugghjul",
            "pbrMetallicRoughness" : {
                "baseColorFactor" : [
                    0.09850414097309113,
                    0.06250979751348495,
                    0.06250979751348495,
                    1
                ],
                "roughnessFactor" : 0.5
            }
        },
        {
            "doubleSided" : true,
            "name" : "Kugghjul.001",
            "pbrMetallicRoughness" : {
                "baseColorFactor" : [
                    0.09850414097309113,
                    0.06250979751348495,
                    0.06250979751348495,
                    1
                ],
                "roughnessFactor" : 0.5
            }
        },
        {
            "doubleSided" : true,
            "name" : "blackBelt",
            "pbrMetallicRoughness" : {
                "metallicFactor" : 0,
                "roughnessFactor" : 0.699999988079071
            }
        },
        {
            "doubleSided" : true,
            "name" : "not belt.001",
            "pbrMetallicRoughness" : {
                "baseColorFactor" : [
                    0.08353114128112793,
                    0.08353114128112793,
                    0.08353114128112793,
                    1
                ],
                "metallicFactor" : 0,
                "roughnessFactor" : 0.5
            }
        },
        {
            "doubleSided" : true,
            "name" : "BeltTexture",
            "pbrMetallicRoughness" : {
                "baseColorTexture" : {
                    "index" : 1
                },
                "metallicFactor" : 0,
                "roughnessFactor" : 0.5
            }
        }
    ],
    "meshes" : [
        {
            "name" : "Plane",
            "primitives" : [
                {
                    "attributes" : {
                        "POSITION" : 0,
                        "NORMAL" : 1,
                        "TEXCOORD_0" : 2
                    },
                    "indices" : 3,
                    "material" : 0
                }
            ]
        },
        {
            "name" : "Circle.008",
            "primitives" : [
                {
                    "attributes" : {
                        "POSITION" : 4,
                        "NORMAL" : 5,
                        "TEXCOORD_0" : 6
                    },
                    "indices" : 7,
                    "material" : 1
                }
            ]
        },
        {
            "name" : "Circle.001",
            "primitives" : [
                {
                    "attributes" : {
                        "POSITION" : 8,
                        "NORMAL" : 9,
                        "TEXCOORD_0" : 10
                    },
                    "indices" : 11,
                    "material" : 1
                }
            ]
        },
        {
            "name" : "Circle.004",
            "primitives" : [
                {
                    "attributes" : {
                        "POSITION" : 12,
                        "NORMAL" : 13,
                        "TEXCOORD_0" : 14
                    },
                    "indices" : 15,
                    "material" : 2
                }
            ]
        },
        {
            "name" : "Circle.009",
            "primitives" : [
                {
                    "attributes" : {
                        "POSITION" : 16,
                        "NORMAL" : 17,
                        "TEXCOORD_0" : 18
                    },
                    "indices" : 19,
                    "material" : 2
                }
            ]
        },
        {
            "name" : "Circle.010",
            "primitives" : [
                {
                    "attributes" : {
                        "POSITION" : 20,
                        "NORMAL" : 21,
                        "TEXCOORD_0" : 22
                    },
                    "indices" : 23,
                    "material" : 3
                },
                {
                    "attributes" : {
                        "POSITION" : 24,
                        "NORMAL" : 25,
                        "TEXCOORD_0" : 26
                    },
                    "indices" : 27,
                    "material" : 4
                },
                {
                    "attributes" : {
                        "POSITION" : 28,
                        "NORMAL" : 29,
                        "TEXCOORD_0" : 30
                    },
                    "indices" : 31,
                    "material" : 5
                }
            ]
        }
    ],
    "textures" : [
        {
            "sampler" : 0,
            "source" : 0
        },
        {
            "sampler" : 0,
            "source" : 1
        }
    ],
    "images" : [
        {
            "bufferView" : 4,
            "mimeType" : "image/png",
            "name" : "floortexture"
        },
        {
            "bufferView" : 33,
            "mimeType" : "image/png",
            "name" : "conveyor-belt"
        }
    ],
    "accessors" : [
        {
            "bufferView" : 0,
            "componentType" : 5126,
            "count" : 102,
            "max" : [
                10.100000381469727,
                13.265979766845703,
                10.100000381469727
            ],
            "min" : [
                -10.070711135864258,
                -0.057735033333301544,
                -10.070711135864258
            ],
            "type" : "VEC3"
        },
        {
            "bufferView" : 1,
            "componentType" : 5126,
            "count" : 102,
            "type" : "VEC3"
        },
        {
            "bufferView" : 2,
            "componentType" : 5126,
            "count" : 102,
            "type" : "VEC2"
        },
        {
            "bufferView" : 3,
            "componentType" : 5123,
            "count" : 168,
            "type" : "SCALAR"
        },
        {
            "bufferView" : 5,
            "componentType" : 5126,
            "count" : 884,
            "max" : [
                0.1779448390007019,
                0.17794476449489594,
                0.020485611632466316
            ],
            "min" : [
                -0.17794466018676758,
                -0.17794477939605713,
                -0.020485607907176018
            ],
            "type" : "VEC3"
        },
        {
            "bufferView" : 6,
            "componentType" : 5126,
            "count" : 884,
            "type" : "VEC3"
        },
        {
            "bufferView" : 7,
            "componentType" : 5126,
            "count" : 884,
            "type" : "VEC2"
        },
        {
            "bufferView" : 8,
            "componentType" : 5123,
            "count" : 1344,
            "type" : "SCALAR"
        },
        {
            "bufferView" : 9,
            "componentType" : 5126,
            "count" : 886,
            "max" : [
                0.1779448390007019,
                0.17794476449489594,
                0.020485596731305122
            ],
            "min" : [
                -0.17794466018676758,
                -0.17794477939605713,
                -0.02048562280833721
            ],
            "type" : "VEC3"
        },
        {
            "bufferView" : 10,
            "componentType" : 5126,
            "count" : 886,
            "type" : "VEC3"
        },
        {
            "bufferView" : 11,
            "componentType" : 5126,
            "count" : 886,
            "type" : "VEC2"
        },
        {
            "bufferView" : 12,
            "componentType" : 5123,
            "count" : 1344,
            "type" : "SCALAR"
        },
        {
            "bufferView" : 13,
            "componentType" : 5126,
            "count" : 889,
            "max" : [
                0.1779448688030243,
                0.17794473469257355,
                0.020485639572143555
            ],
            "min" : [
                -0.17794468998908997,
                -0.17794480919837952,
                -0.02048557996749878
            ],
            "type" : "VEC3"
        },
        {
            "bufferView" : 14,
            "componentType" : 5126,
            "count" : 889,
            "type" : "VEC3"
        },
        {
            "bufferView" : 15,
            "componentType" : 5126,
            "count" : 889,
            "type" : "VEC2"
        },
        {
            "bufferView" : 16,
            "componentType" : 5123,
            "count" : 1344,
            "type" : "SCALAR"
        },
        {
            "bufferView" : 17,
            "componentType" : 5126,
            "count" : 882,
            "max" : [
                0.1779448688030243,
                0.17794473469257355,
                0.02048546075820923
            ],
            "min" : [
                -0.17794468998908997,
                -0.17794480919837952,
                -0.020485758781433105
            ],
            "type" : "VEC3"
        },
        {
            "bufferView" : 18,
            "componentType" : 5126,
            "count" : 882,
            "type" : "VEC3"
        },
        {
            "bufferView" : 19,
            "componentType" : 5126,
            "count" : 882,
            "type" : "VEC2"
        },
        {
            "bufferView" : 20,
            "componentType" : 5123,
            "count" : 1344,
            "type" : "SCALAR"
        },
        {
            "bufferView" : 21,
            "componentType" : 5126,
            "count" : 1052,
            "max" : [
                2.5,
                0.3999999761581421,
                0.3006224036216736
            ],
            "min" : [
                -0.4999999701976776,
                1.4901161193847656e-08,
                -0.30012911558151245
            ],
            "type" : "VEC3"
        },
        {
            "bufferView" : 22,
            "componentType" : 5126,
            "count" : 1052,
            "type" : "VEC3"
        },
        {
            "bufferView" : 23,
            "componentType" : 5126,
            "count" : 1052,
            "type" : "VEC2"
        },
        {
            "bufferView" : 24,
            "componentType" : 5123,
            "count" : 1632,
            "type" : "SCALAR"
        },
        {
            "bufferView" : 25,
            "componentType" : 5126,
            "count" : 136,
            "max" : [
                2.4800000190734863,
                0.3799999952316284,
                0.2806223928928375
            ],
            "min" : [
                -0.479999840259552,
                0.02000001072883606,
                -0.2801291346549988
            ],
            "type" : "VEC3"
        },
        {
            "bufferView" : 26,
            "componentType" : 5126,
            "count" : 136,
            "type" : "VEC3"
        },
        {
            "bufferView" : 27,
            "componentType" : 5126,
            "count" : 136,
            "type" : "VEC2"
        },
        {
            "bufferView" : 28,
            "componentType" : 5123,
            "count" : 396,
            "type" : "SCALAR"
        },
        {
            "bufferView" : 29,
            "componentType" : 5126,
            "count" : 272,
            "max" : [
                2.5,
                0.3999999761581421,
                0.3006224036216736
            ],
            "min" : [
                -0.4999999701976776,
                1.4901161193847656e-08,
                -0.30012911558151245
            ],
            "type" : "VEC3"
        },
        {
            "bufferView" : 30,
            "componentType" : 5126,
            "count" : 272,
            "type" : "VEC3"
        },
        {
            "bufferView" : 31,
            "componentType" : 5126,
            "count" : 272,
            "type" : "VEC2"
        },
        {
            "bufferView" : 32,
            "componentType" : 5123,
            "count" : 408,
            "type" : "SCALAR"
        }
    ],
    "bufferViews" : [
        {
            "buffer" : 0,
            "byteLength" : 1224,
            "byteOffset" : 0,
            "target" : 34962
        },
        {
            "buffer" : 0,
            "byteLength" : 1224,
            "byteOffset" : 1224,
            "target" : 34962
        },
        {
            "buffer" : 0,
            "byteLength" : 816,
            "byteOffset" : 2448,
            "target" : 34962
        },
        {
            "buffer" : 0,
            "byteLength" : 336,
            "byteOffset" : 3264,
            "target" : 34963
        },
        {
            "buffer" : 0,
            "byteLength" : 2558,
            "byteOffset" : 3600
        },
        {
            "buffer" : 0,
            "byteLength" : 10608,
            "byteOffset" : 6160,
            "target" : 34962
        },
        {
            "buffer" : 0,
            "byteLength" : 10608,
            "byteOffset" : 16768,
            "target" : 34962
        },
        {
            "buffer" : 0,
            "byteLength" : 7072,
            "byteOffset" : 27376,
            "target" : 34962
        },
        {
            "buffer" : 0,
            "byteLength" : 2688,
            "byteOffset" : 34448,
            "target" : 34963
        },
        {
            "buffer" : 0,
            "byteLength" : 10632,
            "byteOffset" : 37136,
            "target" : 34962
        },
        {
            "buffer" : 0,
            "byteLength" : 10632,
            "byteOffset" : 47768,
            "target" : 34962
        },
        {
            "buffer" : 0,
            "byteLength" : 7088,
            "byteOffset" : 58400,
            "target" : 34962
        },
        {
            "buffer" : 0,
            "byteLength" : 2688,
            "byteOffset" : 65488,
            "target" : 34963
        },
        {
            "buffer" : 0,
            "byteLength" : 10668,
            "byteOffset" : 68176,
            "target" : 34962
        },
        {
            "buffer" : 0,
            "byteLength" : 10668,
            "byteOffset" : 78844,
            "target" : 34962
        },
        {
            "buffer" : 0,
            "byteLength" : 7112,
            "byteOffset" : 89512,
            "target" : 34962
        },
        {
            "buffer" : 0,
            "byteLength" : 2688,
            "byteOffset" : 96624,
            "target" : 34963
        },
        {
            "buffer" : 0,
            "byteLength" : 10584,
            "byteOffset" : 99312,
            "target" : 34962
        },
        {
            "buffer" : 0,
            "byteLength" : 10584,
            "byteOffset" : 109896,
            "target" : 34962
        },
        {
            "buffer" : 0,
            "byteLength" : 7056,
            "byteOffset" : 120480,
            "target" : 34962
        },
        {
            "buffer" : 0,
            "byteLength" : 2688,
            "byteOffset" : 127536,
            "target" : 34963
        },
        {
            "buffer" : 0,
            "byteLength" : 12624,
            "byteOffset" : 130224,
            "target" : 34962
        },
        {
            "buffer" : 0,
            "byteLength" : 12624,
            "byteOffset" : 142848,
            "target" : 34962
        },
        {
            "buffer" : 0,
            "byteLength" : 8416,
            "byteOffset" : 155472,
            "target" : 34962
        },
        {
            "buffer" : 0,
            "byteLength" : 3264,
            "byteOffset" : 163888,
            "target" : 34963
        },
        {
            "buffer" : 0,
            "byteLength" : 1632,
            "byteOffset" : 167152,
            "target" : 34962
        },
        {
            "buffer" : 0,
            "byteLength" : 1632,
            "byteOffset" : 168784,
            "target" : 34962
        },
        {
            "buffer" : 0,
            "byteLength" : 1088,
            "byteOffset" : 170416,
            "target" : 34962
        },
        {
            "buffer" : 0,
            "byteLength" : 792,
            "byteOffset" : 171504,
            "target" : 34963
        },
        {
            "buffer" : 0,
            "byteLength" : 3264,
            "byteOffset" : 172296,
            "target" : 34962
        },
        {
            "buffer" : 0,
            "byteLength" : 3264,
            "byteOffset" : 175560,
            "target" : 34962
        },
        {
            "buffer" : 0,
            "byteLength" : 2176,
            "byteOffset" : 178824,
            "target" : 34962
        },
        {
            "buffer" : 0,
            "byteLength" : 816,
            "byteOffset" : 181000,
            "target" : 34963
        },
        {
            "buffer" : 0,
            "byteLength" : 3485,
            "byteOffset" : 181816
        }
    ],
    "samplers" : [
        {
            "magFilter" : 9729,
            "minFilter" : 9987
        }
    ],
    "buffers" : [
        {
            "byteLength" : 185304,
            "uri" : "data:application/octet-stream;base64,"
        }
    ]
}
