{
	"asset":{
		"generator":"Khronos glTF Blender I/O v3.5.30",
		"version":"2.0"
	},
	"scene":0,
	"scenes":[
		{
			"name":"Scene",
			"nodes":[
				0
			]
		}
	],
	"nodes":[
		{
			"mesh":0,
			"name":"Anka"
		}
	],
	"materials":[
		{
			"doubleSided":true,
			"name":"Gul",
			"pbrMetallicRoughness":{
				"baseColorFactor":[
					0.9559732675552368,
					0.5149171352386475,
					0,
					1
				],
				"roughnessFactor":0.10000000149011612
			}
		},
		{
			"doubleSided":true,
			"name":"R\u00f6d",
			"pbrMetallicRoughness":{
				"baseColorFactor":[
					0.8000000715255737,
					0.05142136663198471,
					0.016437780112028122,
					1
				],
				"roughnessFactor":0.30000001192092896
			}
		},
		{
			"doubleSided":true,
			"name":"Vit",
			"pbrMetallicRoughness":{
				"roughnessFactor":0.10000000149011612
			}
		},
		{
			"doubleSided":true,
			"name":"\u00f6ga",
			"pbrMetallicRoughness":{
				"baseColorFactor":[
					0.09027084708213806,
					0.10121918469667435,
					0.3672373592853546,
					1
				],
				"roughnessFactor":0.10000000149011612
			}
		}
	],
	"meshes":[
		{
			"name":"Sphere",
			"primitives":[
				{
					"attributes":{
						"POSITION":0,
						"TEXCOORD_0":1,
						"NORMAL":2
					},
					"indices":3,
					"material":0
				},
				{
					"attributes":{
						"POSITION":4,
						"TEXCOORD_0":5,
						"NORMAL":6
					},
					"indices":7,
					"material":1
				},
				{
					"attributes":{
						"POSITION":8,
						"TEXCOORD_0":9,
						"NORMAL":10
					},
					"indices":11,
					"material":2
				},
				{
					"attributes":{
						"POSITION":12,
						"TEXCOORD_0":13,
						"NORMAL":14
					},
					"indices":15,
					"material":3
				}
			]
		}
	],
	"accessors":[
		{
			"bufferView":0,
			"componentType":5126,
			"count":488,
			"max":[
				0.17581968009471893,
				0.3994261920452118,
				0.2273700088262558
			],
			"min":[
				-0.17581963539123535,
				-0.0021173804998397827,
				-0.24990016222000122
			],
			"type":"VEC3"
		},
		{
			"bufferView":1,
			"componentType":5126,
			"count":488,
			"type":"VEC2"
		},
		{
			"bufferView":2,
			"componentType":5126,
			"count":488,
			"type":"VEC3"
		},
		{
			"bufferView":3,
			"componentType":5123,
			"count":2097,
			"type":"SCALAR"
		},
		{
			"bufferView":4,
			"componentType":5126,
			"count":157,
			"max":[
				0.030474700033664703,
				0.334736168384552,
				0.3096069097518921
			],
			"min":[
				-0.030474480241537094,
				0.287853479385376,
				0.22325600683689117
			],
			"type":"VEC3"
		},
		{
			"bufferView":5,
			"componentType":5126,
			"count":157,
			"type":"VEC2"
		},
		{
			"bufferView":6,
			"componentType":5126,
			"count":157,
			"type":"VEC3"
		},
		{
			"bufferView":7,
			"componentType":5123,
			"count":879,
			"type":"SCALAR"
		},
		{
			"bufferView":8,
			"componentType":5126,
			"count":128,
			"max":[
				0.056158773601055145,
				0.36894410848617554,
				0.21405158936977386
			],
			"min":[
				-0.0561586394906044,
				0.3478151559829712,
				0.20062920451164246
			],
			"type":"VEC3"
		},
		{
			"bufferView":9,
			"componentType":5126,
			"count":128,
			"type":"VEC2"
		},
		{
			"bufferView":10,
			"componentType":5126,
			"count":128,
			"type":"VEC3"
		},
		{
			"bufferView":11,
			"componentType":5123,
			"count":576,
			"type":"SCALAR"
		},
		{
			"bufferView":12,
			"componentType":5126,
			"count":50,
			"max":[
				0.04940894618630409,
				0.3632952868938446,
				0.21127109229564667
			],
			"min":[
				-0.04940881207585335,
				0.35382434725761414,
				0.20515038073062897
			],
			"type":"VEC3"
		},
		{
			"bufferView":13,
			"componentType":5126,
			"count":50,
			"type":"VEC2"
		},
		{
			"bufferView":14,
			"componentType":5126,
			"count":50,
			"type":"VEC3"
		},
		{
			"bufferView":15,
			"componentType":5123,
			"count":192,
			"type":"SCALAR"
		}
	],
	"bufferViews":[
		{
			"buffer":0,
			"byteLength":5856,
			"byteOffset":0,
			"target":34962
		},
		{
			"buffer":0,
			"byteLength":3904,
			"byteOffset":5856,
			"target":34962
		},
		{
			"buffer":0,
			"byteLength":5856,
			"byteOffset":9760,
			"target":34962
		},
		{
			"buffer":0,
			"byteLength":4194,
			"byteOffset":15616,
			"target":34963
		},
		{
			"buffer":0,
			"byteLength":1884,
			"byteOffset":19812,
			"target":34962
		},
		{
			"buffer":0,
			"byteLength":1256,
			"byteOffset":21696,
			"target":34962
		},
		{
			"buffer":0,
			"byteLength":1884,
			"byteOffset":22952,
			"target":34962
		},
		{
			"buffer":0,
			"byteLength":1758,
			"byteOffset":24836,
			"target":34963
		},
		{
			"buffer":0,
			"byteLength":1536,
			"byteOffset":26596,
			"target":34962
		},
		{
			"buffer":0,
			"byteLength":1024,
			"byteOffset":28132,
			"target":34962
		},
		{
			"buffer":0,
			"byteLength":1536,
			"byteOffset":29156,
			"target":34962
		},
		{
			"buffer":0,
			"byteLength":1152,
			"byteOffset":30692,
			"target":34963
		},
		{
			"buffer":0,
			"byteLength":600,
			"byteOffset":31844,
			"target":34962
		},
		{
			"buffer":0,
			"byteLength":400,
			"byteOffset":32444,
			"target":34962
		},
		{
			"buffer":0,
			"byteLength":600,
			"byteOffset":32844,
			"target":34962
		},
		{
			"buffer":0,
			"byteLength":384,
			"byteOffset":33444,
			"target":34963
		}
	],
	"buffers":[
		{
			"byteLength":33828,
			"uri":"data:application/octet-stream;base64,"
		}
	]
}
