{
	"asset":{
		"generator":"Khronos glTF Blender I/O v3.5.30",
		"version":"2.0"
	},
	"scene":0,
	"scenes":[
		{
			"name":"Scene",
			"nodes":[
				0
			]
		}
	],
	"nodes":[
		{
			"mesh":0,
			"name":"Anka",
			"rotation":[
				0,
				-1,
				0,
				1.6292068494294654e-07
			],
			"scale":[
				0.5,
				0.5,
				0.5
			]
		}
	],
	"materials":[
		{
			"doubleSided":true,
			"name":"Gul",
			"pbrMetallicRoughness":{
				"baseColorFactor":[
					0.9559735655784607,
					0.51491779088974,
					0,
					1
				],
				"roughnessFactor":0.30000001192092896
			}
		},
		{
			"doubleSided":true,
			"name":"Vit",
			"pbrMetallicRoughness":{
				"roughnessFactor":0.10000000149011612
			}
		},
		{
			"doubleSided":true,
			"name":"\u00f6ga",
			"pbrMetallicRoughness":{
				"baseColorFactor":[
					0.09027084708213806,
					0.10121918469667435,
					0.3672373592853546,
					1
				],
				"roughnessFactor":0.10000000149011612
			}
		},
		{
			"doubleSided":true,
			"name":"R\u00f6d",
			"pbrMetallicRoughness":{
				"baseColorFactor":[
					0.8000000715255737,
					0.13375431299209595,
					0.03768129274249077,
					1
				],
				"roughnessFactor":0.30000001192092896
			}
		}
	],
	"meshes":[
		{
			"name":"Sphere",
			"primitives":[
				{
					"attributes":{
						"POSITION":0,
						"TEXCOORD_0":1,
						"NORMAL":2
					},
					"indices":3,
					"material":0
				},
				{
					"attributes":{
						"POSITION":4,
						"TEXCOORD_0":5,
						"NORMAL":6
					},
					"indices":7,
					"material":1
				},
				{
					"attributes":{
						"POSITION":8,
						"TEXCOORD_0":9,
						"NORMAL":10
					},
					"indices":11,
					"material":2
				},
				{
					"attributes":{
						"POSITION":12,
						"TEXCOORD_0":13,
						"NORMAL":14
					},
					"indices":15,
					"material":3
				}
			]
		}
	],
	"accessors":[
		{
			"bufferView":0,
			"componentType":5126,
			"count":6264,
			"max":[
				0.35276180505752563,
				0.7995418310165405,
				0.4998551607131958
			],
			"min":[
				-0.35276180505752563,
				-0.004678681492805481,
				-0.45478004217147827
			],
			"type":"VEC3"
		},
		{
			"bufferView":1,
			"componentType":5126,
			"count":6264,
			"type":"VEC2"
		},
		{
			"bufferView":2,
			"componentType":5126,
			"count":6264,
			"type":"VEC3"
		},
		{
			"bufferView":3,
			"componentType":5123,
			"count":34752,
			"type":"SCALAR"
		},
		{
			"bufferView":4,
			"componentType":5126,
			"count":160,
			"max":[
				0.11875973641872406,
				0.7443602681159973,
				-0.39548784494400024
			],
			"min":[
				-0.11861653625965118,
				0.6871621608734131,
				-0.43051716685295105
			],
			"type":"VEC3"
		},
		{
			"bufferView":5,
			"componentType":5126,
			"count":160,
			"type":"VEC2"
		},
		{
			"bufferView":6,
			"componentType":5126,
			"count":160,
			"type":"VEC3"
		},
		{
			"bufferView":7,
			"componentType":5123,
			"count":768,
			"type":"SCALAR"
		},
		{
			"bufferView":8,
			"componentType":5126,
			"count":50,
			"max":[
				0.10067766159772873,
				0.7289301753044128,
				-0.40932542085647583
			],
			"min":[
				-0.10009762644767761,
				0.705282986164093,
				-0.4222716987133026
			],
			"type":"VEC3"
		},
		{
			"bufferView":9,
			"componentType":5126,
			"count":50,
			"type":"VEC2"
		},
		{
			"bufferView":10,
			"componentType":5126,
			"count":50,
			"type":"VEC3"
		},
		{
			"bufferView":11,
			"componentType":5123,
			"count":192,
			"type":"SCALAR"
		},
		{
			"bufferView":12,
			"componentType":5126,
			"count":2898,
			"max":[
				0.06131773814558983,
				0.669830858707428,
				-0.44625380635261536
			],
			"min":[
				-0.06131773814558983,
				0.575706958770752,
				-0.6190785765647888
			],
			"type":"VEC3"
		},
		{
			"bufferView":13,
			"componentType":5126,
			"count":2898,
			"type":"VEC2"
		},
		{
			"bufferView":14,
			"componentType":5126,
			"count":2898,
			"type":"VEC3"
		},
		{
			"bufferView":15,
			"componentType":5123,
			"count":16896,
			"type":"SCALAR"
		}
	],
	"bufferViews":[
		{
			"buffer":0,
			"byteLength":75168,
			"byteOffset":0,
			"target":34962
		},
		{
			"buffer":0,
			"byteLength":50112,
			"byteOffset":75168,
			"target":34962
		},
		{
			"buffer":0,
			"byteLength":75168,
			"byteOffset":125280,
			"target":34962
		},
		{
			"buffer":0,
			"byteLength":69504,
			"byteOffset":200448,
			"target":34963
		},
		{
			"buffer":0,
			"byteLength":1920,
			"byteOffset":269952,
			"target":34962
		},
		{
			"buffer":0,
			"byteLength":1280,
			"byteOffset":271872,
			"target":34962
		},
		{
			"buffer":0,
			"byteLength":1920,
			"byteOffset":273152,
			"target":34962
		},
		{
			"buffer":0,
			"byteLength":1536,
			"byteOffset":275072,
			"target":34963
		},
		{
			"buffer":0,
			"byteLength":600,
			"byteOffset":276608,
			"target":34962
		},
		{
			"buffer":0,
			"byteLength":400,
			"byteOffset":277208,
			"target":34962
		},
		{
			"buffer":0,
			"byteLength":600,
			"byteOffset":277608,
			"target":34962
		},
		{
			"buffer":0,
			"byteLength":384,
			"byteOffset":278208,
			"target":34963
		},
		{
			"buffer":0,
			"byteLength":34776,
			"byteOffset":278592,
			"target":34962
		},
		{
			"buffer":0,
			"byteLength":23184,
			"byteOffset":313368,
			"target":34962
		},
		{
			"buffer":0,
			"byteLength":34776,
			"byteOffset":336552,
			"target":34962
		},
		{
			"buffer":0,
			"byteLength":33792,
			"byteOffset":371328,
			"target":34963
		}
	],
	"buffers":[
		{
			"byteLength":405120,
			"uri":"data:application/octet-stream;base64,"
		}
	]
}
