{
    "asset" : {
        "generator" : "Khronos glTF Blender I/O v3.3.32",
        "version" : "2.0"
    },
    "scene" : 0,
    "scenes" : [
        {
            "name" : "Scene",
            "nodes" : [
                0
            ]
        }
    ],
    "nodes" : [
        {
            "mesh" : 0,
            "name" : "IronRod",
            "rotation" : [
                0.6989067196846008,
                0.10737525671720505,
                -0.10737527161836624,
                0.698906660079956
            ],
            "scale" : [
                0.050317998975515366,
                0.4222179055213928,
                0.05031817406415939
            ],
            "translation" : [
                0.006052406970411539,
                0.2380092442035675,
                0
            ]
        }
    ],
    "materials" : [
        {
            "doubleSided" : true,
            "name" : "Iron",
            "pbrMetallicRoughness" : {
                "baseColorFactor" : [
                    0.20870941877365112,
                    0.3435758352279663,
                    0.43854397535324097,
                    1
                ],
                "roughnessFactor" : 0.5
            }
        }
    ],
    "meshes" : [
        {
            "name" : "Cylinder.007",
            "primitives" : [
                {
                    "attributes" : {
                        "POSITION" : 0,
                        "NORMAL" : 1,
                        "TEXCOORD_0" : 2
                    },
                    "indices" : 3,
                    "material" : 0
                }
            ]
        }
    ],
    "accessors" : [
        {
            "bufferView" : 0,
            "componentType" : 5126,
            "count" : 5082,
            "max" : [
                5.66404390335083,
                0.9124364852905273,
                4.73035192489624
            ],
            "min" : [
                -4.0141191482543945,
                -0.8455922603607178,
                -0.760995626449585
            ],
            "type" : "VEC3"
        },
        {
            "bufferView" : 1,
            "componentType" : 5126,
            "count" : 5082,
            "type" : "VEC3"
        },
        {
            "bufferView" : 2,
            "componentType" : 5126,
            "count" : 5082,
            "type" : "VEC2"
        },
        {
            "bufferView" : 3,
            "componentType" : 5123,
            "count" : 8208,
            "type" : "SCALAR"
        }
    ],
    "bufferViews" : [
        {
            "buffer" : 0,
            "byteLength" : 60984,
            "byteOffset" : 0,
            "target" : 34962
        },
        {
            "buffer" : 0,
            "byteLength" : 60984,
            "byteOffset" : 60984,
            "target" : 34962
        },
        {
            "buffer" : 0,
            "byteLength" : 40656,
            "byteOffset" : 121968,
            "target" : 34962
        },
        {
            "buffer" : 0,
            "byteLength" : 16416,
            "byteOffset" : 162624,
            "target" : 34963
        }
    ],
    "buffers" : [
        {
            "byteLength" : 179040,
            "uri" : "data:application/octet-stream;base64,"
        }
    ]
}
