{
    "asset" : {
        "generator" : "Khronos glTF Blender I/O v3.3.32",
        "version" : "2.0"
    },
    "scene" : 0,
    "scenes" : [
        {
            "name" : "Scene",
            "nodes" : [
                0
            ]
        }
    ],
    "nodes" : [
        {
            "mesh" : 0,
            "name" : "IronGear"
        }
    ],
    "materials" : [
        {
            "doubleSided" : true,
            "name" : "IronGear",
            "pbrMetallicRoughness" : {
                "baseColorFactor" : [
                    0.21093423664569855,
                    0.38515326380729675,
                    0.42002320289611816,
                    1
                ],
                "roughnessFactor" : 0.699999988079071
            }
        }
    ],
    "meshes" : [
        {
            "name" : "Circle.001",
            "primitives" : [
                {
                    "attributes" : {
                        "POSITION" : 0,
                        "NORMAL" : 1,
                        "TEXCOORD_0" : 2
                    },
                    "indices" : 3,
                    "material" : 0
                }
            ]
        }
    ],
    "accessors" : [
        {
            "bufferView" : 0,
            "componentType" : 5126,
            "count" : 2105,
            "max" : [
                0.3869776129722595,
                0.07999999821186066,
                0.3869776129722595
            ],
            "min" : [
                -0.3869776129722595,
                0,
                -0.3869776129722595
            ],
            "type" : "VEC3"
        },
        {
            "bufferView" : 1,
            "componentType" : 5126,
            "count" : 2105,
            "type" : "VEC3"
        },
        {
            "bufferView" : 2,
            "componentType" : 5126,
            "count" : 2105,
            "type" : "VEC2"
        },
        {
            "bufferView" : 3,
            "componentType" : 5123,
            "count" : 3072,
            "type" : "SCALAR"
        }
    ],
    "bufferViews" : [
        {
            "buffer" : 0,
            "byteLength" : 25260,
            "byteOffset" : 0,
            "target" : 34962
        },
        {
            "buffer" : 0,
            "byteLength" : 25260,
            "byteOffset" : 25260,
            "target" : 34962
        },
        {
            "buffer" : 0,
            "byteLength" : 16840,
            "byteOffset" : 50520,
            "target" : 34962
        },
        {
            "buffer" : 0,
            "byteLength" : 6144,
            "byteOffset" : 67360,
            "target" : 34963
        }
    ],
    "buffers" : [
        {
            "byteLength" : 73504,
            "uri" : "data:application/octet-stream;base64,"
        }
    ]
}
