{
    "asset" : {
        "generator" : "Khronos glTF Blender I/O v3.3.32",
        "version" : "2.0"
    },
    "scene" : 0,
    "scenes" : [
        {
            "name" : "Scene",
            "nodes" : [
                0,
                1,
                2,
                3,
                4
            ]
        }
    ],
    "nodes" : [
        {
            "mesh" : 0,
            "name" : "belt",
            "scale" : [
                2.5,
                2.5,
                2.5
            ],
            "translation" : [
                0,
                0.008312195539474487,
                0.00015454291133210063
            ]
        },
        {
            "mesh" : 1,
            "name" : "hjul.003",
            "scale" : [
                2.5,
                2.5,
                2.5
            ],
            "translation" : [
                -0.7461981773376465,
                0.5083122253417969,
                -0.7508922815322876
            ]
        },
        {
            "mesh" : 2,
            "name" : "hjul.002",
            "scale" : [
                2.5,
                2.5,
                2.5
            ],
            "translation" : [
                0.7461983561515808,
                0.5083122253417969,
                -0.7508922815322876
            ]
        },
        {
            "mesh" : 3,
            "name" : "hjul.001",
            "scale" : [
                2.5,
                2.5,
                2.5
            ],
            "translation" : [
                0.7461983561515808,
                0.5083122253417969,
                0.750557541847229
            ]
        },
        {
            "mesh" : 4,
            "name" : "hjul.004",
            "scale" : [
                2.5,
                2.5,
                2.5
            ],
            "translation" : [
                -0.7461981773376465,
                0.5083122253417969,
                0.750557541847229
            ]
        }
    ],
    "animations" : [
        {
            "channels" : [
                {
                    "sampler" : 0,
                    "target" : {
                        "node" : 0,
                        "path" : "translation"
                    }
                },
                {
                    "sampler" : 1,
                    "target" : {
                        "node" : 0,
                        "path" : "rotation"
                    }
                },
                {
                    "sampler" : 2,
                    "target" : {
                        "node" : 0,
                        "path" : "scale"
                    }
                }
            ],
            "name" : "beltAction",
            "samplers" : [
                {
                    "input" : 24,
                    "interpolation" : "STEP",
                    "output" : 25
                },
                {
                    "input" : 24,
                    "interpolation" : "STEP",
                    "output" : 26
                },
                {
                    "input" : 24,
                    "interpolation" : "STEP",
                    "output" : 27
                }
            ]
        },
        {
            "channels" : [
                {
                    "sampler" : 0,
                    "target" : {
                        "node" : 1,
                        "path" : "rotation"
                    }
                },
                {
                    "sampler" : 1,
                    "target" : {
                        "node" : 1,
                        "path" : "translation"
                    }
                },
                {
                    "sampler" : 2,
                    "target" : {
                        "node" : 1,
                        "path" : "scale"
                    }
                }
            ],
            "name" : "hjul.001Action",
            "samplers" : [
                {
                    "input" : 28,
                    "interpolation" : "LINEAR",
                    "output" : 29
                },
                {
                    "input" : 24,
                    "interpolation" : "STEP",
                    "output" : 30
                },
                {
                    "input" : 24,
                    "interpolation" : "STEP",
                    "output" : 31
                }
            ]
        },
        {
            "channels" : [
                {
                    "sampler" : 0,
                    "target" : {
                        "node" : 2,
                        "path" : "rotation"
                    }
                },
                {
                    "sampler" : 1,
                    "target" : {
                        "node" : 2,
                        "path" : "translation"
                    }
                },
                {
                    "sampler" : 2,
                    "target" : {
                        "node" : 2,
                        "path" : "scale"
                    }
                }
            ],
            "name" : "hjul.002Action",
            "samplers" : [
                {
                    "input" : 28,
                    "interpolation" : "LINEAR",
                    "output" : 32
                },
                {
                    "input" : 24,
                    "interpolation" : "STEP",
                    "output" : 33
                },
                {
                    "input" : 24,
                    "interpolation" : "STEP",
                    "output" : 34
                }
            ]
        },
        {
            "channels" : [
                {
                    "sampler" : 0,
                    "target" : {
                        "node" : 3,
                        "path" : "rotation"
                    }
                },
                {
                    "sampler" : 1,
                    "target" : {
                        "node" : 3,
                        "path" : "translation"
                    }
                },
                {
                    "sampler" : 2,
                    "target" : {
                        "node" : 3,
                        "path" : "scale"
                    }
                }
            ],
            "name" : "hjul.004Action",
            "samplers" : [
                {
                    "input" : 28,
                    "interpolation" : "LINEAR",
                    "output" : 35
                },
                {
                    "input" : 24,
                    "interpolation" : "STEP",
                    "output" : 36
                },
                {
                    "input" : 24,
                    "interpolation" : "STEP",
                    "output" : 37
                }
            ]
        },
        {
            "channels" : [
                {
                    "sampler" : 0,
                    "target" : {
                        "node" : 4,
                        "path" : "rotation"
                    }
                },
                {
                    "sampler" : 1,
                    "target" : {
                        "node" : 4,
                        "path" : "translation"
                    }
                },
                {
                    "sampler" : 2,
                    "target" : {
                        "node" : 4,
                        "path" : "scale"
                    }
                }
            ],
            "name" : "hjul.005Action",
            "samplers" : [
                {
                    "input" : 28,
                    "interpolation" : "LINEAR",
                    "output" : 38
                },
                {
                    "input" : 24,
                    "interpolation" : "STEP",
                    "output" : 39
                },
                {
                    "input" : 24,
                    "interpolation" : "STEP",
                    "output" : 40
                }
            ]
        }
    ],
    "materials" : [
        {
            "doubleSided" : true,
            "name" : "Belt",
            "pbrMetallicRoughness" : {
                "baseColorFactor" : [
                    0,
                    0,
                    0,
                    1
                ],
                "metallicFactor" : 0,
                "roughnessFactor" : 0.699999988079071
            }
        },
        {
            "doubleSided" : true,
            "name" : "not belt",
            "pbrMetallicRoughness" : {
                "baseColorFactor" : [
                    0.08353114128112793,
                    0.08353114128112793,
                    0.08353114128112793,
                    1
                ],
                "metallicFactor" : 0,
                "roughnessFactor" : 0.5
            }
        },
        {
            "doubleSided" : true,
            "name" : "Kugghjul",
            "pbrMetallicRoughness" : {
                "baseColorFactor" : [
                    0.09850414097309113,
                    0.06250979751348495,
                    0.06250979751348495,
                    1
                ],
                "roughnessFactor" : 0.5
            }
        }
    ],
    "meshes" : [
        {
            "name" : "Circle.005",
            "primitives" : [
                {
                    "attributes" : {
                        "POSITION" : 0,
                        "NORMAL" : 1,
                        "TEXCOORD_0" : 2
                    },
                    "indices" : 3,
                    "material" : 0
                },
                {
                    "attributes" : {
                        "POSITION" : 4,
                        "NORMAL" : 5,
                        "TEXCOORD_0" : 6
                    },
                    "indices" : 7,
                    "material" : 1
                }
            ]
        },
        {
            "name" : "Circle.001",
            "primitives" : [
                {
                    "attributes" : {
                        "POSITION" : 8,
                        "NORMAL" : 9,
                        "TEXCOORD_0" : 10
                    },
                    "indices" : 11,
                    "material" : 2
                }
            ]
        },
        {
            "name" : "Circle.006",
            "primitives" : [
                {
                    "attributes" : {
                        "POSITION" : 12,
                        "NORMAL" : 13,
                        "TEXCOORD_0" : 14
                    },
                    "indices" : 15,
                    "material" : 2
                }
            ]
        },
        {
            "name" : "Circle.007",
            "primitives" : [
                {
                    "attributes" : {
                        "POSITION" : 16,
                        "NORMAL" : 17,
                        "TEXCOORD_0" : 18
                    },
                    "indices" : 19,
                    "material" : 2
                }
            ]
        },
        {
            "name" : "Circle.008",
            "primitives" : [
                {
                    "attributes" : {
                        "POSITION" : 20,
                        "NORMAL" : 21,
                        "TEXCOORD_0" : 22
                    },
                    "indices" : 23,
                    "material" : 2
                }
            ]
        }
    ],
    "accessors" : [
        {
            "bufferView" : 0,
            "componentType" : 5126,
            "count" : 1326,
            "max" : [
                0.5000000596046448,
                0.3999999761581421,
                0.3006224036216736
            ],
            "min" : [
                -0.4999999701976776,
                1.4901161193847656e-08,
                -0.30012911558151245
            ],
            "type" : "VEC3"
        },
        {
            "bufferView" : 1,
            "componentType" : 5126,
            "count" : 1326,
            "type" : "VEC3"
        },
        {
            "bufferView" : 2,
            "componentType" : 5126,
            "count" : 1326,
            "type" : "VEC2"
        },
        {
            "bufferView" : 3,
            "componentType" : 5123,
            "count" : 2040,
            "type" : "SCALAR"
        },
        {
            "bufferView" : 4,
            "componentType" : 5126,
            "count" : 136,
            "max" : [
                0.4800000488758087,
                0.3799999952316284,
                0.2806223928928375
            ],
            "min" : [
                -0.479999840259552,
                0.02000001072883606,
                -0.2801291346549988
            ],
            "type" : "VEC3"
        },
        {
            "bufferView" : 5,
            "componentType" : 5126,
            "count" : 136,
            "type" : "VEC3"
        },
        {
            "bufferView" : 6,
            "componentType" : 5126,
            "count" : 136,
            "type" : "VEC2"
        },
        {
            "bufferView" : 7,
            "componentType" : 5123,
            "count" : 396,
            "type" : "SCALAR"
        },
        {
            "bufferView" : 8,
            "componentType" : 5126,
            "count" : 886,
            "max" : [
                0.17794495820999146,
                0.17794473469257355,
                0.020485639572143555
            ],
            "min" : [
                -0.17794454097747803,
                -0.17794480919837952,
                -0.02048557996749878
            ],
            "type" : "VEC3"
        },
        {
            "bufferView" : 9,
            "componentType" : 5126,
            "count" : 886,
            "type" : "VEC3"
        },
        {
            "bufferView" : 10,
            "componentType" : 5126,
            "count" : 886,
            "type" : "VEC2"
        },
        {
            "bufferView" : 11,
            "componentType" : 5123,
            "count" : 1344,
            "type" : "SCALAR"
        },
        {
            "bufferView" : 12,
            "componentType" : 5126,
            "count" : 889,
            "max" : [
                0.1779448688030243,
                0.17794473469257355,
                0.020485639572143555
            ],
            "min" : [
                -0.17794468998908997,
                -0.17794480919837952,
                -0.02048557996749878
            ],
            "type" : "VEC3"
        },
        {
            "bufferView" : 13,
            "componentType" : 5126,
            "count" : 889,
            "type" : "VEC3"
        },
        {
            "bufferView" : 14,
            "componentType" : 5126,
            "count" : 889,
            "type" : "VEC2"
        },
        {
            "bufferView" : 15,
            "componentType" : 5123,
            "count" : 1344,
            "type" : "SCALAR"
        },
        {
            "bufferView" : 16,
            "componentType" : 5126,
            "count" : 882,
            "max" : [
                0.1779448688030243,
                0.17794473469257355,
                0.02048546075820923
            ],
            "min" : [
                -0.17794468998908997,
                -0.17794480919837952,
                -0.020485758781433105
            ],
            "type" : "VEC3"
        },
        {
            "bufferView" : 17,
            "componentType" : 5126,
            "count" : 882,
            "type" : "VEC3"
        },
        {
            "bufferView" : 18,
            "componentType" : 5126,
            "count" : 882,
            "type" : "VEC2"
        },
        {
            "bufferView" : 19,
            "componentType" : 5123,
            "count" : 1344,
            "type" : "SCALAR"
        },
        {
            "bufferView" : 20,
            "componentType" : 5126,
            "count" : 882,
            "max" : [
                0.17794495820999146,
                0.17794473469257355,
                0.02048546075820923
            ],
            "min" : [
                -0.17794454097747803,
                -0.17794480919837952,
                -0.020485758781433105
            ],
            "type" : "VEC3"
        },
        {
            "bufferView" : 21,
            "componentType" : 5126,
            "count" : 882,
            "type" : "VEC3"
        },
        {
            "bufferView" : 22,
            "componentType" : 5126,
            "count" : 882,
            "type" : "VEC2"
        },
        {
            "bufferView" : 23,
            "componentType" : 5123,
            "count" : 1344,
            "type" : "SCALAR"
        },
        {
            "bufferView" : 24,
            "componentType" : 5126,
            "count" : 1,
            "max" : [
                1.875
            ],
            "min" : [
                1.875
            ],
            "type" : "SCALAR"
        },
        {
            "bufferView" : 25,
            "componentType" : 5126,
            "count" : 1,
            "type" : "VEC3"
        },
        {
            "bufferView" : 26,
            "componentType" : 5126,
            "count" : 1,
            "type" : "VEC4"
        },
        {
            "bufferView" : 27,
            "componentType" : 5126,
            "count" : 1,
            "type" : "VEC3"
        },
        {
            "bufferView" : 28,
            "componentType" : 5126,
            "count" : 62,
            "max" : [
                2.5416666666666665
            ],
            "min" : [
                0
            ],
            "type" : "SCALAR"
        },
        {
            "bufferView" : 29,
            "componentType" : 5126,
            "count" : 62,
            "type" : "VEC4"
        },
        {
            "bufferView" : 30,
            "componentType" : 5126,
            "count" : 1,
            "type" : "VEC3"
        },
        {
            "bufferView" : 31,
            "componentType" : 5126,
            "count" : 1,
            "type" : "VEC3"
        },
        {
            "bufferView" : 32,
            "componentType" : 5126,
            "count" : 62,
            "type" : "VEC4"
        },
        {
            "bufferView" : 33,
            "componentType" : 5126,
            "count" : 1,
            "type" : "VEC3"
        },
        {
            "bufferView" : 34,
            "componentType" : 5126,
            "count" : 1,
            "type" : "VEC3"
        },
        {
            "bufferView" : 35,
            "componentType" : 5126,
            "count" : 62,
            "type" : "VEC4"
        },
        {
            "bufferView" : 36,
            "componentType" : 5126,
            "count" : 1,
            "type" : "VEC3"
        },
        {
            "bufferView" : 37,
            "componentType" : 5126,
            "count" : 1,
            "type" : "VEC3"
        },
        {
            "bufferView" : 38,
            "componentType" : 5126,
            "count" : 62,
            "type" : "VEC4"
        },
        {
            "bufferView" : 39,
            "componentType" : 5126,
            "count" : 1,
            "type" : "VEC3"
        },
        {
            "bufferView" : 40,
            "componentType" : 5126,
            "count" : 1,
            "type" : "VEC3"
        }
    ],
    "bufferViews" : [
        {
            "buffer" : 0,
            "byteLength" : 15912,
            "byteOffset" : 0,
            "target" : 34962
        },
        {
            "buffer" : 0,
            "byteLength" : 15912,
            "byteOffset" : 15912,
            "target" : 34962
        },
        {
            "buffer" : 0,
            "byteLength" : 10608,
            "byteOffset" : 31824,
            "target" : 34962
        },
        {
            "buffer" : 0,
            "byteLength" : 4080,
            "byteOffset" : 42432,
            "target" : 34963
        },
        {
            "buffer" : 0,
            "byteLength" : 1632,
            "byteOffset" : 46512,
            "target" : 34962
        },
        {
            "buffer" : 0,
            "byteLength" : 1632,
            "byteOffset" : 48144,
            "target" : 34962
        },
        {
            "buffer" : 0,
            "byteLength" : 1088,
            "byteOffset" : 49776,
            "target" : 34962
        },
        {
            "buffer" : 0,
            "byteLength" : 792,
            "byteOffset" : 50864,
            "target" : 34963
        },
        {
            "buffer" : 0,
            "byteLength" : 10632,
            "byteOffset" : 51656,
            "target" : 34962
        },
        {
            "buffer" : 0,
            "byteLength" : 10632,
            "byteOffset" : 62288,
            "target" : 34962
        },
        {
            "buffer" : 0,
            "byteLength" : 7088,
            "byteOffset" : 72920,
            "target" : 34962
        },
        {
            "buffer" : 0,
            "byteLength" : 2688,
            "byteOffset" : 80008,
            "target" : 34963
        },
        {
            "buffer" : 0,
            "byteLength" : 10668,
            "byteOffset" : 82696,
            "target" : 34962
        },
        {
            "buffer" : 0,
            "byteLength" : 10668,
            "byteOffset" : 93364,
            "target" : 34962
        },
        {
            "buffer" : 0,
            "byteLength" : 7112,
            "byteOffset" : 104032,
            "target" : 34962
        },
        {
            "buffer" : 0,
            "byteLength" : 2688,
            "byteOffset" : 111144,
            "target" : 34963
        },
        {
            "buffer" : 0,
            "byteLength" : 10584,
            "byteOffset" : 113832,
            "target" : 34962
        },
        {
            "buffer" : 0,
            "byteLength" : 10584,
            "byteOffset" : 124416,
            "target" : 34962
        },
        {
            "buffer" : 0,
            "byteLength" : 7056,
            "byteOffset" : 135000,
            "target" : 34962
        },
        {
            "buffer" : 0,
            "byteLength" : 2688,
            "byteOffset" : 142056,
            "target" : 34963
        },
        {
            "buffer" : 0,
            "byteLength" : 10584,
            "byteOffset" : 144744,
            "target" : 34962
        },
        {
            "buffer" : 0,
            "byteLength" : 10584,
            "byteOffset" : 155328,
            "target" : 34962
        },
        {
            "buffer" : 0,
            "byteLength" : 7056,
            "byteOffset" : 165912,
            "target" : 34962
        },
        {
            "buffer" : 0,
            "byteLength" : 2688,
            "byteOffset" : 172968,
            "target" : 34963
        },
        {
            "buffer" : 0,
            "byteLength" : 4,
            "byteOffset" : 175656
        },
        {
            "buffer" : 0,
            "byteLength" : 12,
            "byteOffset" : 175660
        },
        {
            "buffer" : 0,
            "byteLength" : 16,
            "byteOffset" : 175672
        },
        {
            "buffer" : 0,
            "byteLength" : 12,
            "byteOffset" : 175688
        },
        {
            "buffer" : 0,
            "byteLength" : 248,
            "byteOffset" : 175700
        },
        {
            "buffer" : 0,
            "byteLength" : 992,
            "byteOffset" : 175948
        },
        {
            "buffer" : 0,
            "byteLength" : 12,
            "byteOffset" : 176940
        },
        {
            "buffer" : 0,
            "byteLength" : 12,
            "byteOffset" : 176952
        },
        {
            "buffer" : 0,
            "byteLength" : 992,
            "byteOffset" : 176964
        },
        {
            "buffer" : 0,
            "byteLength" : 12,
            "byteOffset" : 177956
        },
        {
            "buffer" : 0,
            "byteLength" : 12,
            "byteOffset" : 177968
        },
        {
            "buffer" : 0,
            "byteLength" : 992,
            "byteOffset" : 177980
        },
        {
            "buffer" : 0,
            "byteLength" : 12,
            "byteOffset" : 178972
        },
        {
            "buffer" : 0,
            "byteLength" : 12,
            "byteOffset" : 178984
        },
        {
            "buffer" : 0,
            "byteLength" : 992,
            "byteOffset" : 178996
        },
        {
            "buffer" : 0,
            "byteLength" : 12,
            "byteOffset" : 179988
        },
        {
            "buffer" : 0,
            "byteLength" : 12,
            "byteOffset" : 180000
        }
    ],
    "buffers" : [
        {
            "byteLength" : 180012,
            "uri" : "data:application/octet-stream;base64,"
        }
    ]
}
