{
	"asset":{
		"generator":"Khronos glTF Blender I/O v3.5.30",
		"version":"2.0"
	},
	"extensionsUsed":[
		"KHR_materials_emissive_strength"
	],
	"scene":0,
	"scenes":[
		{
			"name":"Scene",
			"nodes":[
				0,
				1,
				2,
				3,
				4
			]
		}
	],
	"nodes":[
		{
			"mesh":0,
			"name":"RightArrow_z+",
			"rotation":[
				0,
				0,
				0.38268324732780457,
				0.9238796234130859
			],
			"scale":[
				0.15185265243053436,
				0.15185265243053436,
				0.15185266733169556
			]
		},
		{
			"mesh":1,
			"name":"LeftArrow_z+",
			"rotation":[
				0,
				0,
				0.38268324732780457,
				0.9238796234130859
			],
			"scale":[
				0.15185265243053436,
				0.15185265243053436,
				0.15185266733169556
			]
		},
		{
			"mesh":2,
			"name":"RightArrow_z-",
			"rotation":[
				0,
				0,
				0.38268324732780457,
				0.9238796234130859
			],
			"scale":[
				0.15185265243053436,
				0.15185265243053436,
				0.15185266733169556
			]
		},
		{
			"mesh":3,
			"name":"LeftArrow_z-",
			"rotation":[
				0,
				0,
				0.38268324732780457,
				0.9238796234130859
			],
			"scale":[
				0.15185265243053436,
				0.15185265243053436,
				0.15185266733169556
			]
		},
		{
			"mesh":4,
			"name":"constructor"
		}
	],
	"animations":[
		{
			"channels":[
				{
					"sampler":0,
					"target":{
						"node":4,
						"path":"translation"
					}
				},
				{
					"sampler":1,
					"target":{
						"node":4,
						"path":"rotation"
					}
				},
				{
					"sampler":2,
					"target":{
						"node":4,
						"path":"scale"
					}
				}
			],
			"name":"constructor",
			"samplers":[
				{
					"input":46,
					"interpolation":"LINEAR",
					"output":47
				},
				{
					"input":46,
					"interpolation":"LINEAR",
					"output":48
				},
				{
					"input":46,
					"interpolation":"LINEAR",
					"output":49
				}
			]
		},
		{
			"channels":[
				{
					"sampler":0,
					"target":{
						"node":0,
						"path":"translation"
					}
				},
				{
					"sampler":1,
					"target":{
						"node":0,
						"path":"rotation"
					}
				},
				{
					"sampler":2,
					"target":{
						"node":0,
						"path":"scale"
					}
				}
			],
			"name":"RightArrow_z+",
			"samplers":[
				{
					"input":46,
					"interpolation":"LINEAR",
					"output":50
				},
				{
					"input":46,
					"interpolation":"LINEAR",
					"output":51
				},
				{
					"input":46,
					"interpolation":"LINEAR",
					"output":52
				}
			]
		},
		{
			"channels":[
				{
					"sampler":0,
					"target":{
						"node":1,
						"path":"translation"
					}
				},
				{
					"sampler":1,
					"target":{
						"node":1,
						"path":"rotation"
					}
				},
				{
					"sampler":2,
					"target":{
						"node":1,
						"path":"scale"
					}
				}
			],
			"name":"LeftArrow_z+",
			"samplers":[
				{
					"input":46,
					"interpolation":"LINEAR",
					"output":53
				},
				{
					"input":46,
					"interpolation":"LINEAR",
					"output":54
				},
				{
					"input":46,
					"interpolation":"LINEAR",
					"output":55
				}
			]
		},
		{
			"channels":[
				{
					"sampler":0,
					"target":{
						"node":2,
						"path":"translation"
					}
				},
				{
					"sampler":1,
					"target":{
						"node":2,
						"path":"rotation"
					}
				},
				{
					"sampler":2,
					"target":{
						"node":2,
						"path":"scale"
					}
				}
			],
			"name":"RightArrow_z-",
			"samplers":[
				{
					"input":46,
					"interpolation":"LINEAR",
					"output":56
				},
				{
					"input":46,
					"interpolation":"LINEAR",
					"output":57
				},
				{
					"input":46,
					"interpolation":"LINEAR",
					"output":58
				}
			]
		},
		{
			"channels":[
				{
					"sampler":0,
					"target":{
						"node":3,
						"path":"translation"
					}
				},
				{
					"sampler":1,
					"target":{
						"node":3,
						"path":"rotation"
					}
				},
				{
					"sampler":2,
					"target":{
						"node":3,
						"path":"scale"
					}
				}
			],
			"name":"LeftArrow_z-",
			"samplers":[
				{
					"input":46,
					"interpolation":"LINEAR",
					"output":59
				},
				{
					"input":46,
					"interpolation":"LINEAR",
					"output":60
				},
				{
					"input":46,
					"interpolation":"LINEAR",
					"output":61
				}
			]
		}
	],
	"materials":[
		{
			"doubleSided":true,
			"emissiveFactor":[
				1,
				0.8796219825744629,
				0
			],
			"name":"Pilar",
			"pbrMetallicRoughness":{
				"baseColorFactor":[
					1,
					0.8796219825744629,
					0,
					1
				],
				"roughnessFactor":0.20000000298023224
			}
		},
		{
			"doubleSided":true,
			"name":"IronGear",
			"pbrMetallicRoughness":{
				"baseColorFactor":[
					0.21093423664569855,
					0.38515326380729675,
					0.42002320289611816,
					1
				],
				"roughnessFactor":0.699999988079071
			}
		},
		{
			"doubleSided":true,
			"name":"Balk",
			"normalTexture":{
				"index":0
			},
			"pbrMetallicRoughness":{
				"baseColorTexture":{
					"index":1
				},
				"metallicRoughnessTexture":{
					"index":2
				}
			}
		},
		{
			"doubleSided":true,
			"name":"Smart material",
			"normalTexture":{
				"index":3
			},
			"pbrMetallicRoughness":{
				"baseColorTexture":{
					"index":4
				},
				"metallicRoughnessTexture":{
					"index":5
				}
			}
		},
		{
			"doubleSided":true,
			"name":"Svart",
			"pbrMetallicRoughness":{
				"baseColorFactor":[
					0,
					0,
					0,
					1
				],
				"metallicFactor":0
			}
		},
		{
			"doubleSided":true,
			"emissiveFactor":[
				1,
				0.48611755609678703,
				0.1603406968583678
			],
			"extensions":{
				"KHR_materials_emissive_strength":{
					"emissiveStrength":2.697397470474243
				}
			},
			"name":"constructorBottomLamp",
			"pbrMetallicRoughness":{
				"baseColorFactor":[
					0.5394794940948486,
					0.26225045323371887,
					0.08650051802396774,
					1
				],
				"metallicFactor":0,
				"roughnessFactor":0.20000000298023224
			}
		},
		{
			"doubleSided":true,
			"name":"Handtag",
			"pbrMetallicRoughness":{
				"baseColorFactor":[
					0.14239995181560516,
					0.14239995181560516,
					0.14239995181560516,
					1
				],
				"roughnessFactor":0.5
			}
		}
	],
	"meshes":[
		{
			"name":"Cube.002",
			"primitives":[
				{
					"attributes":{
						"POSITION":0,
						"TEXCOORD_0":1,
						"NORMAL":2
					},
					"indices":3,
					"material":0
				}
			]
		},
		{
			"name":"Cube.003",
			"primitives":[
				{
					"attributes":{
						"POSITION":4,
						"TEXCOORD_0":5,
						"NORMAL":6
					},
					"indices":7,
					"material":0
				}
			]
		},
		{
			"name":"Cube.004",
			"primitives":[
				{
					"attributes":{
						"POSITION":8,
						"TEXCOORD_0":9,
						"NORMAL":10
					},
					"indices":11,
					"material":0
				}
			]
		},
		{
			"name":"Cube.005",
			"primitives":[
				{
					"attributes":{
						"POSITION":12,
						"TEXCOORD_0":13,
						"NORMAL":14
					},
					"indices":15,
					"material":0
				}
			]
		},
		{
			"name":"Circle.003",
			"primitives":[
				{
					"attributes":{
						"COLOR_0":16,
						"POSITION":17,
						"TEXCOORD_0":18,
						"NORMAL":19
					},
					"indices":20,
					"material":1
				},
				{
					"attributes":{
						"COLOR_0":21,
						"POSITION":22,
						"TEXCOORD_0":23,
						"NORMAL":24
					},
					"indices":25,
					"material":2
				},
				{
					"attributes":{
						"COLOR_0":26,
						"POSITION":27,
						"TEXCOORD_0":28,
						"NORMAL":29
					},
					"indices":30,
					"material":3
				},
				{
					"attributes":{
						"COLOR_0":31,
						"POSITION":32,
						"TEXCOORD_0":33,
						"NORMAL":34
					},
					"indices":35,
					"material":4
				},
				{
					"attributes":{
						"COLOR_0":36,
						"POSITION":37,
						"TEXCOORD_0":38,
						"NORMAL":39
					},
					"indices":40,
					"material":5
				},
				{
					"attributes":{
						"COLOR_0":41,
						"POSITION":42,
						"TEXCOORD_0":43,
						"NORMAL":44
					},
					"indices":45,
					"material":6
				}
			]
		}
	],
	"textures":[
		{
			"sampler":0,
			"source":0
		},
		{
			"sampler":0,
			"source":1
		},
		{
			"sampler":0,
			"source":2
		},
		{
			"sampler":0,
			"source":0
		},
		{
			"sampler":0,
			"source":1
		},
		{
			"sampler":0,
			"source":2
		}
	],
	"images":[
		{
			"bufferView":26,
			"mimeType":"image/png",
			"name":"constructorNormal_2K"
		},
		{
			"bufferView":27,
			"mimeType":"image/jpeg",
			"name":"constructorDiffuse_4K"
		},
		{
			"bufferView":28,
			"mimeType":"image/png",
			"name":"constructorMetallic_2K-constructorRoughness_2K"
		}
	],
	"accessors":[
		{
			"bufferView":0,
			"componentType":5126,
			"count":20,
			"max":[
				5.981795310974121,
				9.61803150177002,
				-6.582504749298096
			],
			"min":[
				4.239449501037598,
				7.875685691833496,
				-6.923273086547852
			],
			"type":"VEC3"
		},
		{
			"bufferView":1,
			"componentType":5126,
			"count":20,
			"type":"VEC2"
		},
		{
			"bufferView":2,
			"componentType":5126,
			"count":20,
			"type":"VEC3"
		},
		{
			"bufferView":3,
			"componentType":5123,
			"count":30,
			"type":"SCALAR"
		},
		{
			"bufferView":4,
			"componentType":5126,
			"count":20,
			"max":[
				9.61802864074707,
				5.9818010330200195,
				-6.582504749298096
			],
			"min":[
				7.875682830810547,
				4.2394537925720215,
				-6.923273086547852
			],
			"type":"VEC3"
		},
		{
			"bufferView":5,
			"componentType":5126,
			"count":20,
			"type":"VEC2"
		},
		{
			"bufferView":6,
			"componentType":5126,
			"count":20,
			"type":"VEC3"
		},
		{
			"bufferView":7,
			"componentType":5123,
			"count":30,
			"type":"SCALAR"
		},
		{
			"bufferView":8,
			"componentType":5126,
			"count":20,
			"max":[
				9.61802864074707,
				5.9818010330200195,
				6.923273086547852
			],
			"min":[
				7.875682830810547,
				4.2394537925720215,
				6.582504749298096
			],
			"type":"VEC3"
		},
		{
			"bufferView":9,
			"componentType":5126,
			"count":20,
			"type":"VEC2"
		},
		{
			"bufferView":10,
			"componentType":5126,
			"count":20,
			"type":"VEC3"
		},
		{
			"bufferView":11,
			"componentType":5123,
			"count":30,
			"type":"SCALAR"
		},
		{
			"bufferView":12,
			"componentType":5126,
			"count":20,
			"max":[
				5.981795310974121,
				9.61803150177002,
				6.923273086547852
			],
			"min":[
				4.239449501037598,
				7.875685691833496,
				6.582504749298096
			],
			"type":"VEC3"
		},
		{
			"bufferView":13,
			"componentType":5126,
			"count":20,
			"type":"VEC2"
		},
		{
			"bufferView":14,
			"componentType":5126,
			"count":20,
			"type":"VEC3"
		},
		{
			"bufferView":15,
			"componentType":5123,
			"count":30,
			"type":"SCALAR"
		},
		{
			"bufferView":16,
			"componentType":5123,
			"count":3968,
			"normalized":true,
			"type":"VEC4"
		},
		{
			"bufferView":17,
			"componentType":5126,
			"count":3968,
			"max":[
				0.04000005125999451,
				2.4502577781677246,
				1.1897956132888794
			],
			"min":[
				-0.040000006556510925,
				1.6763017177581787,
				-1.189795732498169
			],
			"type":"VEC3"
		},
		{
			"bufferView":18,
			"componentType":5126,
			"count":3968,
			"type":"VEC2"
		},
		{
			"bufferView":19,
			"componentType":5126,
			"count":3968,
			"type":"VEC3"
		},
		{
			"bufferView":20,
			"componentType":5123,
			"count":6144,
			"type":"SCALAR"
		},
		{
			"bufferView":21,
			"componentType":5123,
			"count":128,
			"normalized":true,
			"type":"VEC4"
		},
		{
			"bufferView":22,
			"componentType":5126,
			"count":128,
			"max":[
				0.8352510333061218,
				2.1851484775543213,
				1
			],
			"min":[
				-0.8352510333061218,
				0,
				-1
			],
			"type":"VEC3"
		},
		{
			"bufferView":23,
			"componentType":5126,
			"count":128,
			"type":"VEC2"
		},
		{
			"bufferView":24,
			"componentType":5126,
			"count":128,
			"type":"VEC3"
		},
		{
			"bufferView":25,
			"componentType":5123,
			"count":264,
			"type":"SCALAR"
		},
		{
			"bufferView":29,
			"componentType":5123,
			"count":44,
			"normalized":true,
			"type":"VEC4"
		},
		{
			"bufferView":30,
			"componentType":5126,
			"count":44,
			"max":[
				0.6526960134506226,
				2.1851484775543213,
				1
			],
			"min":[
				-0.6526960134506226,
				0,
				-1
			],
			"type":"VEC3"
		},
		{
			"bufferView":31,
			"componentType":5126,
			"count":44,
			"type":"VEC2"
		},
		{
			"bufferView":32,
			"componentType":5126,
			"count":44,
			"type":"VEC3"
		},
		{
			"bufferView":33,
			"componentType":5123,
			"count":114,
			"type":"SCALAR"
		},
		{
			"bufferView":34,
			"componentType":5123,
			"count":536,
			"normalized":true,
			"type":"VEC4"
		},
		{
			"bufferView":35,
			"componentType":5126,
			"count":536,
			"max":[
				0.8352510333061218,
				2.1851484775543213,
				1.0168942213058472
			],
			"min":[
				-0.8352510333061218,
				0.11646903306245804,
				-1.020894169807434
			],
			"type":"VEC3"
		},
		{
			"bufferView":36,
			"componentType":5126,
			"count":536,
			"type":"VEC2"
		},
		{
			"bufferView":37,
			"componentType":5126,
			"count":536,
			"type":"VEC3"
		},
		{
			"bufferView":38,
			"componentType":5123,
			"count":1056,
			"type":"SCALAR"
		},
		{
			"bufferView":39,
			"componentType":5123,
			"count":80,
			"normalized":true,
			"type":"VEC4"
		},
		{
			"bufferView":40,
			"componentType":5126,
			"count":80,
			"max":[
				0.6389737725257874,
				0.21646903455257416,
				1.0118942260742188
			],
			"min":[
				-0.6389737725257874,
				0.11646903306245804,
				-1.0158941745758057
			],
			"type":"VEC3"
		},
		{
			"bufferView":41,
			"componentType":5126,
			"count":80,
			"type":"VEC2"
		},
		{
			"bufferView":42,
			"componentType":5126,
			"count":80,
			"type":"VEC3"
		},
		{
			"bufferView":43,
			"componentType":5123,
			"count":120,
			"type":"SCALAR"
		},
		{
			"bufferView":44,
			"componentType":5123,
			"count":328,
			"normalized":true,
			"type":"VEC4"
		},
		{
			"bufferView":45,
			"componentType":5126,
			"count":328,
			"max":[
				0.3697185218334198,
				2.2802348136901855,
				0.7122740745544434
			],
			"min":[
				-0.3697185218334198,
				2.185148239135742,
				-0.7122740745544434
			],
			"type":"VEC3"
		},
		{
			"bufferView":46,
			"componentType":5126,
			"count":328,
			"type":"VEC2"
		},
		{
			"bufferView":47,
			"componentType":5126,
			"count":328,
			"type":"VEC3"
		},
		{
			"bufferView":48,
			"componentType":5123,
			"count":1392,
			"type":"SCALAR"
		},
		{
			"bufferView":49,
			"componentType":5126,
			"count":21,
			"max":[
				0.8333333333333334
			],
			"min":[
				0
			],
			"type":"SCALAR"
		},
		{
			"bufferView":50,
			"componentType":5126,
			"count":21,
			"type":"VEC3"
		},
		{
			"bufferView":51,
			"componentType":5126,
			"count":21,
			"type":"VEC4"
		},
		{
			"bufferView":52,
			"componentType":5126,
			"count":21,
			"type":"VEC3"
		},
		{
			"bufferView":53,
			"componentType":5126,
			"count":21,
			"type":"VEC3"
		},
		{
			"bufferView":54,
			"componentType":5126,
			"count":21,
			"type":"VEC4"
		},
		{
			"bufferView":55,
			"componentType":5126,
			"count":21,
			"type":"VEC3"
		},
		{
			"bufferView":56,
			"componentType":5126,
			"count":21,
			"type":"VEC3"
		},
		{
			"bufferView":57,
			"componentType":5126,
			"count":21,
			"type":"VEC4"
		},
		{
			"bufferView":58,
			"componentType":5126,
			"count":21,
			"type":"VEC3"
		},
		{
			"bufferView":59,
			"componentType":5126,
			"count":21,
			"type":"VEC3"
		},
		{
			"bufferView":60,
			"componentType":5126,
			"count":21,
			"type":"VEC4"
		},
		{
			"bufferView":61,
			"componentType":5126,
			"count":21,
			"type":"VEC3"
		},
		{
			"bufferView":62,
			"componentType":5126,
			"count":21,
			"type":"VEC3"
		},
		{
			"bufferView":63,
			"componentType":5126,
			"count":21,
			"type":"VEC4"
		},
		{
			"bufferView":64,
			"componentType":5126,
			"count":21,
			"type":"VEC3"
		}
	],
	"bufferViews":[
		{
			"buffer":0,
			"byteLength":240,
			"byteOffset":0,
			"target":34962
		},
		{
			"buffer":0,
			"byteLength":160,
			"byteOffset":240,
			"target":34962
		},
		{
			"buffer":0,
			"byteLength":240,
			"byteOffset":400,
			"target":34962
		},
		{
			"buffer":0,
			"byteLength":60,
			"byteOffset":640,
			"target":34963
		},
		{
			"buffer":0,
			"byteLength":240,
			"byteOffset":700,
			"target":34962
		},
		{
			"buffer":0,
			"byteLength":160,
			"byteOffset":940,
			"target":34962
		},
		{
			"buffer":0,
			"byteLength":240,
			"byteOffset":1100,
			"target":34962
		},
		{
			"buffer":0,
			"byteLength":60,
			"byteOffset":1340,
			"target":34963
		},
		{
			"buffer":0,
			"byteLength":240,
			"byteOffset":1400,
			"target":34962
		},
		{
			"buffer":0,
			"byteLength":160,
			"byteOffset":1640,
			"target":34962
		},
		{
			"buffer":0,
			"byteLength":240,
			"byteOffset":1800,
			"target":34962
		},
		{
			"buffer":0,
			"byteLength":60,
			"byteOffset":2040,
			"target":34963
		},
		{
			"buffer":0,
			"byteLength":240,
			"byteOffset":2100,
			"target":34962
		},
		{
			"buffer":0,
			"byteLength":160,
			"byteOffset":2340,
			"target":34962
		},
		{
			"buffer":0,
			"byteLength":240,
			"byteOffset":2500,
			"target":34962
		},
		{
			"buffer":0,
			"byteLength":60,
			"byteOffset":2740,
			"target":34963
		},
		{
			"buffer":0,
			"byteLength":31744,
			"byteOffset":2800,
			"target":34962
		},
		{
			"buffer":0,
			"byteLength":47616,
			"byteOffset":34544,
			"target":34962
		},
		{
			"buffer":0,
			"byteLength":31744,
			"byteOffset":82160,
			"target":34962
		},
		{
			"buffer":0,
			"byteLength":47616,
			"byteOffset":113904,
			"target":34962
		},
		{
			"buffer":0,
			"byteLength":12288,
			"byteOffset":161520,
			"target":34963
		},
		{
			"buffer":0,
			"byteLength":1024,
			"byteOffset":173808,
			"target":34962
		},
		{
			"buffer":0,
			"byteLength":1536,
			"byteOffset":174832,
			"target":34962
		},
		{
			"buffer":0,
			"byteLength":1024,
			"byteOffset":176368,
			"target":34962
		},
		{
			"buffer":0,
			"byteLength":1536,
			"byteOffset":177392,
			"target":34962
		},
		{
			"buffer":0,
			"byteLength":528,
			"byteOffset":178928,
			"target":34963
		},
		{
			"buffer":0,
			"byteLength":1219665,
			"byteOffset":179456
		},
		{
			"buffer":0,
			"byteLength":687846,
			"byteOffset":1399124
		},
		{
			"buffer":0,
			"byteLength":992791,
			"byteOffset":2086972
		},
		{
			"buffer":0,
			"byteLength":352,
			"byteOffset":3079764,
			"target":34962
		},
		{
			"buffer":0,
			"byteLength":528,
			"byteOffset":3080116,
			"target":34962
		},
		{
			"buffer":0,
			"byteLength":352,
			"byteOffset":3080644,
			"target":34962
		},
		{
			"buffer":0,
			"byteLength":528,
			"byteOffset":3080996,
			"target":34962
		},
		{
			"buffer":0,
			"byteLength":228,
			"byteOffset":3081524,
			"target":34963
		},
		{
			"buffer":0,
			"byteLength":4288,
			"byteOffset":3081752,
			"target":34962
		},
		{
			"buffer":0,
			"byteLength":6432,
			"byteOffset":3086040,
			"target":34962
		},
		{
			"buffer":0,
			"byteLength":4288,
			"byteOffset":3092472,
			"target":34962
		},
		{
			"buffer":0,
			"byteLength":6432,
			"byteOffset":3096760,
			"target":34962
		},
		{
			"buffer":0,
			"byteLength":2112,
			"byteOffset":3103192,
			"target":34963
		},
		{
			"buffer":0,
			"byteLength":640,
			"byteOffset":3105304,
			"target":34962
		},
		{
			"buffer":0,
			"byteLength":960,
			"byteOffset":3105944,
			"target":34962
		},
		{
			"buffer":0,
			"byteLength":640,
			"byteOffset":3106904,
			"target":34962
		},
		{
			"buffer":0,
			"byteLength":960,
			"byteOffset":3107544,
			"target":34962
		},
		{
			"buffer":0,
			"byteLength":240,
			"byteOffset":3108504,
			"target":34963
		},
		{
			"buffer":0,
			"byteLength":2624,
			"byteOffset":3108744,
			"target":34962
		},
		{
			"buffer":0,
			"byteLength":3936,
			"byteOffset":3111368,
			"target":34962
		},
		{
			"buffer":0,
			"byteLength":2624,
			"byteOffset":3115304,
			"target":34962
		},
		{
			"buffer":0,
			"byteLength":3936,
			"byteOffset":3117928,
			"target":34962
		},
		{
			"buffer":0,
			"byteLength":2784,
			"byteOffset":3121864,
			"target":34963
		},
		{
			"buffer":0,
			"byteLength":84,
			"byteOffset":3124648
		},
		{
			"buffer":0,
			"byteLength":252,
			"byteOffset":3124732
		},
		{
			"buffer":0,
			"byteLength":336,
			"byteOffset":3124984
		},
		{
			"buffer":0,
			"byteLength":252,
			"byteOffset":3125320
		},
		{
			"buffer":0,
			"byteLength":252,
			"byteOffset":3125572
		},
		{
			"buffer":0,
			"byteLength":336,
			"byteOffset":3125824
		},
		{
			"buffer":0,
			"byteLength":252,
			"byteOffset":3126160
		},
		{
			"buffer":0,
			"byteLength":252,
			"byteOffset":3126412
		},
		{
			"buffer":0,
			"byteLength":336,
			"byteOffset":3126664
		},
		{
			"buffer":0,
			"byteLength":252,
			"byteOffset":3127000
		},
		{
			"buffer":0,
			"byteLength":252,
			"byteOffset":3127252
		},
		{
			"buffer":0,
			"byteLength":336,
			"byteOffset":3127504
		},
		{
			"buffer":0,
			"byteLength":252,
			"byteOffset":3127840
		},
		{
			"buffer":0,
			"byteLength":252,
			"byteOffset":3128092
		},
		{
			"buffer":0,
			"byteLength":336,
			"byteOffset":3128344
		},
		{
			"buffer":0,
			"byteLength":252,
			"byteOffset":3128680
		}
	],
	"samplers":[
		{
			"magFilter":9729,
			"minFilter":9987
		}
	],
	"buffers":[
		{
			"byteLength":3128932,
			"uri":"data:application/octet-stream;base64,"
		}
	]
}
