{
    "asset" : {
        "generator" : "Khronos glTF Blender I/O v3.3.32",
        "version" : "2.0"
    },
    "scene" : 0,
    "scenes" : [
        {
            "name" : "Scene",
            "nodes" : [
                0,
                1
            ]
        }
    ],
    "nodes" : [
        {
            "mesh" : 0,
            "name" : "LeverAttachement",
            "translation" : [
                0,
                0,
                0.25615012645721436
            ]
        },
        {
            "mesh" : 1,
            "name" : "Handtag",
            "rotation" : [
                -0.5,
                0,
                0,
                0.8660253882408142
            ],
            "translation" : [
                0,
                0,
                0.23499999940395355
            ]
        }
    ],
    "animations" : [
        {
            "channels" : [
                {
                    "sampler" : 0,
                    "target" : {
                        "node" : 1,
                        "path" : "rotation"
                    }
                },
                {
                    "sampler" : 1,
                    "target" : {
                        "node" : 1,
                        "path" : "translation"
                    }
                },
                {
                    "sampler" : 2,
                    "target" : {
                        "node" : 1,
                        "path" : "scale"
                    }
                }
            ],
            "name" : "HandtagAction",
            "samplers" : [
                {
                    "input" : 20,
                    "interpolation" : "LINEAR",
                    "output" : 21
                },
                {
                    "input" : 22,
                    "interpolation" : "STEP",
                    "output" : 23
                },
                {
                    "input" : 22,
                    "interpolation" : "STEP",
                    "output" : 24
                }
            ]
        }
    ],
    "materials" : [
        {
            "doubleSided" : true,
            "name" : "LevelBack",
            "pbrMetallicRoughness" : {
                "baseColorFactor" : [
                    0.12370970100164413,
                    0.12370970100164413,
                    0.12370970100164413,
                    1
                ],
                "metallicFactor" : 0,
                "roughnessFactor" : 0.4000000059604645
            }
        },
        {
            "doubleSided" : true,
            "emissiveFactor" : [
                0.21579180085348781,
                0.10490018285662206,
                0.03460020772517036
            ],
            "name" : "Orange",
            "pbrMetallicRoughness" : {
                "baseColorFactor" : [
                    0.5394794940948486,
                    0.26225045323371887,
                    0.08650051802396774,
                    1
                ],
                "roughnessFactor" : 0.800000011920929
            }
        },
        {
            "doubleSided" : true,
            "name" : "Svart",
            "pbrMetallicRoughness" : {
                "baseColorFactor" : [
                    0,
                    0,
                    0,
                    1
                ],
                "metallicFactor" : 0,
                "roughnessFactor" : 0
            }
        },
        {
            "doubleSided" : true,
            "name" : "Svart.001",
            "pbrMetallicRoughness" : {
                "baseColorFactor" : [
                    0,
                    0,
                    0,
                    1
                ],
                "metallicFactor" : 0,
                "roughnessFactor" : 0.800000011920929
            }
        }
    ],
    "meshes" : [
        {
            "name" : "Cube.001",
            "primitives" : [
                {
                    "attributes" : {
                        "POSITION" : 0,
                        "NORMAL" : 1,
                        "TEXCOORD_0" : 2
                    },
                    "indices" : 3,
                    "material" : 0
                },
                {
                    "attributes" : {
                        "POSITION" : 4,
                        "NORMAL" : 5,
                        "TEXCOORD_0" : 6
                    },
                    "indices" : 7,
                    "material" : 1
                },
                {
                    "attributes" : {
                        "POSITION" : 8,
                        "NORMAL" : 9,
                        "TEXCOORD_0" : 10
                    },
                    "indices" : 11,
                    "material" : 2
                }
            ]
        },
        {
            "name" : "Cube.002",
            "primitives" : [
                {
                    "attributes" : {
                        "POSITION" : 12,
                        "NORMAL" : 13,
                        "TEXCOORD_0" : 14
                    },
                    "indices" : 15,
                    "material" : 1
                },
                {
                    "attributes" : {
                        "POSITION" : 16,
                        "NORMAL" : 17,
                        "TEXCOORD_0" : 18
                    },
                    "indices" : 19,
                    "material" : 3
                }
            ]
        }
    ],
    "accessors" : [
        {
            "bufferView" : 0,
            "componentType" : 5126,
            "count" : 438,
            "max" : [
                0.4246290326118469,
                0.5497682690620422,
                0.0969340056180954
            ],
            "min" : [
                -0.4246290326118469,
                -0.5497682690620422,
                -0.2568097412586212
            ],
            "type" : "VEC3"
        },
        {
            "bufferView" : 1,
            "componentType" : 5126,
            "count" : 438,
            "type" : "VEC3"
        },
        {
            "bufferView" : 2,
            "componentType" : 5126,
            "count" : 438,
            "type" : "VEC2"
        },
        {
            "bufferView" : 3,
            "componentType" : 5123,
            "count" : 786,
            "type" : "SCALAR"
        },
        {
            "bufferView" : 4,
            "componentType" : 5126,
            "count" : 1781,
            "max" : [
                0.4242514967918396,
                0.5493305325508118,
                0.0969340056180954
            ],
            "min" : [
                -0.4242514967918396,
                -0.5493305325508118,
                -0.24814948439598083
            ],
            "type" : "VEC3"
        },
        {
            "bufferView" : 5,
            "componentType" : 5126,
            "count" : 1781,
            "type" : "VEC3"
        },
        {
            "bufferView" : 6,
            "componentType" : 5126,
            "count" : 1781,
            "type" : "VEC2"
        },
        {
            "bufferView" : 7,
            "componentType" : 5123,
            "count" : 1902,
            "type" : "SCALAR"
        },
        {
            "bufferView" : 8,
            "componentType" : 5126,
            "count" : 72,
            "max" : [
                0.24374741315841675,
                0.32378247380256653,
                0.024498729035258293
            ],
            "min" : [
                -0.24374741315841675,
                -0.32378247380256653,
                -0.029999999329447746
            ],
            "type" : "VEC3"
        },
        {
            "bufferView" : 9,
            "componentType" : 5126,
            "count" : 72,
            "type" : "VEC3"
        },
        {
            "bufferView" : 10,
            "componentType" : 5126,
            "count" : 72,
            "type" : "VEC2"
        },
        {
            "bufferView" : 11,
            "componentType" : 5123,
            "count" : 108,
            "type" : "SCALAR"
        },
        {
            "bufferView" : 12,
            "componentType" : 5126,
            "count" : 1080,
            "max" : [
                0.3077239394187927,
                0.05897262692451477,
                0.37841784954071045
            ],
            "min" : [
                -0.30772387981414795,
                -0.059331264346838,
                0.2577981948852539
            ],
            "type" : "VEC3"
        },
        {
            "bufferView" : 13,
            "componentType" : 5126,
            "count" : 1080,
            "type" : "VEC3"
        },
        {
            "bufferView" : 14,
            "componentType" : 5126,
            "count" : 1080,
            "type" : "VEC2"
        },
        {
            "bufferView" : 15,
            "componentType" : 5123,
            "count" : 1608,
            "type" : "SCALAR"
        },
        {
            "bufferView" : 16,
            "componentType" : 5126,
            "count" : 8784,
            "max" : [
                0.21330779790878296,
                0.039406727999448776,
                0.3076625168323517
            ],
            "min" : [
                -0.2133074849843979,
                -0.03951521962881088,
                -0.10450959205627441
            ],
            "type" : "VEC3"
        },
        {
            "bufferView" : 17,
            "componentType" : 5126,
            "count" : 8784,
            "type" : "VEC3"
        },
        {
            "bufferView" : 18,
            "componentType" : 5126,
            "count" : 8784,
            "type" : "VEC2"
        },
        {
            "bufferView" : 19,
            "componentType" : 5123,
            "count" : 13332,
            "type" : "SCALAR"
        },
        {
            "bufferView" : 20,
            "componentType" : 5126,
            "count" : 40,
            "max" : [
                0.6666666666666666
            ],
            "min" : [
                0.016666666666666666
            ],
            "type" : "SCALAR"
        },
        {
            "bufferView" : 21,
            "componentType" : 5126,
            "count" : 40,
            "type" : "VEC4"
        },
        {
            "bufferView" : 22,
            "componentType" : 5126,
            "count" : 1,
            "max" : [
                0.6666666666666666
            ],
            "min" : [
                0.6666666666666666
            ],
            "type" : "SCALAR"
        },
        {
            "bufferView" : 23,
            "componentType" : 5126,
            "count" : 1,
            "type" : "VEC3"
        },
        {
            "bufferView" : 24,
            "componentType" : 5126,
            "count" : 1,
            "type" : "VEC3"
        }
    ],
    "bufferViews" : [
        {
            "buffer" : 0,
            "byteLength" : 5256,
            "byteOffset" : 0,
            "target" : 34962
        },
        {
            "buffer" : 0,
            "byteLength" : 5256,
            "byteOffset" : 5256,
            "target" : 34962
        },
        {
            "buffer" : 0,
            "byteLength" : 3504,
            "byteOffset" : 10512,
            "target" : 34962
        },
        {
            "buffer" : 0,
            "byteLength" : 1572,
            "byteOffset" : 14016,
            "target" : 34963
        },
        {
            "buffer" : 0,
            "byteLength" : 21372,
            "byteOffset" : 15588,
            "target" : 34962
        },
        {
            "buffer" : 0,
            "byteLength" : 21372,
            "byteOffset" : 36960,
            "target" : 34962
        },
        {
            "buffer" : 0,
            "byteLength" : 14248,
            "byteOffset" : 58332,
            "target" : 34962
        },
        {
            "buffer" : 0,
            "byteLength" : 3804,
            "byteOffset" : 72580,
            "target" : 34963
        },
        {
            "buffer" : 0,
            "byteLength" : 864,
            "byteOffset" : 76384,
            "target" : 34962
        },
        {
            "buffer" : 0,
            "byteLength" : 864,
            "byteOffset" : 77248,
            "target" : 34962
        },
        {
            "buffer" : 0,
            "byteLength" : 576,
            "byteOffset" : 78112,
            "target" : 34962
        },
        {
            "buffer" : 0,
            "byteLength" : 216,
            "byteOffset" : 78688,
            "target" : 34963
        },
        {
            "buffer" : 0,
            "byteLength" : 12960,
            "byteOffset" : 78904,
            "target" : 34962
        },
        {
            "buffer" : 0,
            "byteLength" : 12960,
            "byteOffset" : 91864,
            "target" : 34962
        },
        {
            "buffer" : 0,
            "byteLength" : 8640,
            "byteOffset" : 104824,
            "target" : 34962
        },
        {
            "buffer" : 0,
            "byteLength" : 3216,
            "byteOffset" : 113464,
            "target" : 34963
        },
        {
            "buffer" : 0,
            "byteLength" : 105408,
            "byteOffset" : 116680,
            "target" : 34962
        },
        {
            "buffer" : 0,
            "byteLength" : 105408,
            "byteOffset" : 222088,
            "target" : 34962
        },
        {
            "buffer" : 0,
            "byteLength" : 70272,
            "byteOffset" : 327496,
            "target" : 34962
        },
        {
            "buffer" : 0,
            "byteLength" : 26664,
            "byteOffset" : 397768,
            "target" : 34963
        },
        {
            "buffer" : 0,
            "byteLength" : 160,
            "byteOffset" : 424432
        },
        {
            "buffer" : 0,
            "byteLength" : 640,
            "byteOffset" : 424592
        },
        {
            "buffer" : 0,
            "byteLength" : 4,
            "byteOffset" : 425232
        },
        {
            "buffer" : 0,
            "byteLength" : 12,
            "byteOffset" : 425236
        },
        {
            "buffer" : 0,
            "byteLength" : 12,
            "byteOffset" : 425248
        }
    ],
    "buffers" : [
        {
            "byteLength" : 425260,
            "uri" : "data:application/octet-stream;base64,"
        }
    ]
}
